<svg width="16" height="12" viewBox="0 0 16 12" fill="none" xmlns="http://www.w3.org/2000/svg">
<path fill-rule="evenodd" clip-rule="evenodd" d="M2.66668 1.33333C2.30154 1.33333 2.00002 1.63486 2.00002 2V10C2.00002 10.3651 2.30154 10.6667 2.66668 10.6667H13.3333C13.6985 10.6667 14 10.3651 14 10V2C14 1.63486 13.6985 1.33333 13.3333 1.33333H2.66668ZM0.666683 2C0.666683 0.898477 1.56516 0 2.66668 0H13.3333C14.4349 0 15.3333 0.898477 15.3333 2V10C15.3333 11.1015 14.4349 12 13.3333 12H2.66668C1.56516 12 0.666683 11.1015 0.666683 10V2Z" fill="#0E0F12"/>
<path fill-rule="evenodd" clip-rule="evenodd" d="M0.787195 1.61769C0.998338 1.31606 1.41403 1.2427 1.71566 1.45385L6.85309 5.05005C7.54173 5.5321 8.4583 5.5321 9.14694 5.05005L14.2844 1.45385C14.586 1.2427 15.0017 1.31606 15.2128 1.61769C15.424 1.91932 15.3506 2.33501 15.049 2.54615L9.91156 6.14236C8.76383 6.94577 7.23621 6.94577 6.08848 6.14236L0.951042 2.54615C0.649409 2.33501 0.576052 1.91932 0.787195 1.61769Z" fill="#0E0F12"/>
</svg>
