<svg width="14" height="15" viewBox="0 0 14 15" fill="none" xmlns="http://www.w3.org/2000/svg">
<path d="M13.537 6.19474H13V6.16707H7.00004V8.83374H10.7677C10.218 10.3861 8.74104 11.5004 7.00004 11.5004C4.79104 11.5004 3.00004 9.70941 3.00004 7.50041C3.00004 5.29141 4.79104 3.50041 7.00004 3.50041C8.01971 3.50041 8.94737 3.88507 9.65371 4.51341L11.5394 2.62774C10.3487 1.51807 8.75604 0.83374 7.00004 0.83374C3.31837 0.83374 0.333374 3.81874 0.333374 7.50041C0.333374 11.1821 3.31837 14.1671 7.00004 14.1671C10.6817 14.1671 13.6667 11.1821 13.6667 7.50041C13.6667 7.05341 13.6207 6.61707 13.537 6.19474Z" fill="#FFC107"/>
<path d="M1.10217 4.39741L3.29251 6.00374C3.88517 4.53641 5.32051 3.50041 7.00017 3.50041C8.01984 3.50041 8.94751 3.88507 9.65384 4.51341L11.5395 2.62774C10.3488 1.51807 8.75617 0.83374 7.00017 0.83374C4.43951 0.83374 2.21884 2.27941 1.10217 4.39741Z" fill="#FF3D00"/>
<path d="M6.99982 14.1665C8.72182 14.1665 10.2865 13.5075 11.4695 12.4359L9.40615 10.6899C8.71433 11.216 7.86897 11.5006 6.99982 11.4999C5.26582 11.4999 3.79349 10.3942 3.23882 8.8512L1.06482 10.5262C2.16815 12.6852 4.40882 14.1665 6.99982 14.1665Z" fill="#4CAF50"/>
<path d="M13.537 6.19466H13V6.16699H7V8.83366H10.7677C10.5047 9.57246 10.0311 10.2181 9.40533 10.6907L9.40633 10.69L11.4697 12.436C11.3237 12.5687 13.6667 10.8337 13.6667 7.50033C13.6667 7.05333 13.6207 6.61699 13.537 6.19466Z" fill="#1976D2"/>
</svg>
