<svg width="14" height="10" viewBox="0 0 14 10" fill="none" xmlns="http://www.w3.org/2000/svg">
<path fill-rule="evenodd" clip-rule="evenodd" d="M0.333313 3.66671C0.333313 3.29852 0.63179 3.00004 0.99998 3.00004H10.3333C10.7015 3.00004 11 3.29852 11 3.66671C11 4.0349 10.7015 4.33337 10.3333 4.33337H0.99998C0.63179 4.33337 0.333313 4.0349 0.333313 3.66671Z" fill="#0E0F12"/>
<path fill-rule="evenodd" clip-rule="evenodd" d="M0.333313 1.00004C0.333313 0.631851 0.63179 0.333374 0.99998 0.333374H13C13.3682 0.333374 13.6666 0.631851 13.6666 1.00004C13.6666 1.36823 13.3682 1.66671 13 1.66671H0.99998C0.63179 1.66671 0.333313 1.36823 0.333313 1.00004Z" fill="#0E0F12"/>
<path fill-rule="evenodd" clip-rule="evenodd" d="M0.333313 6.33337C0.333313 5.96518 0.63179 5.66671 0.99998 5.66671H13C13.3682 5.66671 13.6666 5.96518 13.6666 6.33337C13.6666 6.70156 13.3682 7.00004 13 7.00004H0.99998C0.63179 7.00004 0.333313 6.70156 0.333313 6.33337Z" fill="#0E0F12"/>
<path fill-rule="evenodd" clip-rule="evenodd" d="M0.333313 9.00004C0.333313 8.63185 0.63179 8.33337 0.99998 8.33337H10.3333C10.7015 8.33337 11 8.63185 11 9.00004C11 9.36823 10.7015 9.66671 10.3333 9.66671H0.99998C0.63179 9.66671 0.333313 9.36823 0.333313 9.00004Z" fill="#0E0F12"/>
</svg>
