<svg width="14" height="13" viewBox="0 0 14 13" fill="none" xmlns="http://www.w3.org/2000/svg">
<path d="M9.19633 3.98387C8.81622 1.64335 7.91967 0 6.87631 0C5.83296 0 4.9364 1.64335 4.55629 3.98387H9.19633ZM4.35967 6.5C4.35967 7.08185 4.39113 7.64012 4.44618 8.17742H9.30382C9.35887 7.64012 9.39033 7.08185 9.39033 6.5C9.39033 5.91815 9.35887 5.35988 9.30382 4.82258H4.44618C4.39113 5.35988 4.35967 5.91815 4.35967 6.5ZM12.8717 3.98387C12.1219 2.20423 10.6041 0.828226 8.72971 0.272581C9.36935 1.15847 9.80977 2.49254 10.0405 3.98387H12.8717ZM5.02029 0.272581C3.14854 0.828226 1.62808 2.20423 0.880949 3.98387H3.71216C3.94024 2.49254 4.38065 1.15847 5.02029 0.272581ZM13.1522 4.82258H10.1453C10.2004 5.37298 10.2318 5.93649 10.2318 6.5C10.2318 7.06351 10.2004 7.62702 10.1453 8.17742H13.1496C13.2937 7.64012 13.375 7.08185 13.375 6.5C13.375 5.91815 13.2937 5.35988 13.1522 4.82258ZM3.5208 6.5C3.5208 5.93649 3.55225 5.37298 3.60731 4.82258H0.600449C0.458888 5.35988 0.375 5.91815 0.375 6.5C0.375 7.08185 0.458888 7.64012 0.600449 8.17742H3.60468C3.55225 7.62702 3.5208 7.06351 3.5208 6.5ZM4.55629 9.01613C4.9364 11.3567 5.83296 13 6.87631 13C7.91967 13 8.81622 11.3567 9.19633 9.01613H4.55629ZM8.73233 12.7274C10.6041 12.1718 12.1245 10.7958 12.8743 9.01613H10.0431C9.81239 10.5075 9.37197 11.8415 8.73233 12.7274ZM0.880949 9.01613C1.6307 10.7958 3.14854 12.1718 5.02291 12.7274C4.38327 11.8415 3.94286 10.5075 3.71216 9.01613H0.880949Z" fill="#555555"/>
</svg>
