<svg width="94" height="17" viewBox="0 0 94 17" fill="none" xmlns="http://www.w3.org/2000/svg">
<path d="M34.0923 13.2123C33.8365 13.2123 33.6676 13.1028 33.5857 12.8837L31.3904 6.78464C31.3801 6.75835 31.375 6.71892 31.375 6.66634C31.375 6.58747 31.4057 6.52175 31.4671 6.46917C31.5285 6.40783 31.6053 6.37716 31.6974 6.37716H32.8642C32.9665 6.37716 33.0535 6.40345 33.1251 6.45603C33.207 6.50861 33.2582 6.56557 33.2787 6.62691L34.7678 10.9515L36.3491 6.66634C36.3798 6.58747 36.431 6.52175 36.5026 6.46917C36.5845 6.40783 36.6868 6.37716 36.8096 6.37716H37.5926C37.7154 6.37716 37.8126 6.40783 37.8843 6.46917C37.9662 6.52175 38.0173 6.58747 38.0378 6.66634L39.6344 10.9515L41.1236 6.62691C41.144 6.56557 41.1901 6.50861 41.2617 6.45603C41.3334 6.40345 41.4255 6.37716 41.5381 6.37716H42.6895C42.7816 6.37716 42.8584 6.40783 42.9198 6.46917C42.9914 6.52175 43.0272 6.58747 43.0272 6.66634L42.9965 6.78464L40.8012 12.8837C40.7602 12.9888 40.6988 13.0721 40.617 13.1334C40.5453 13.186 40.443 13.2123 40.3099 13.2123H39.2967C39.0306 13.2123 38.8617 13.1028 38.7901 12.8837L37.2088 8.75632L35.6122 12.8837C35.5303 13.1028 35.3563 13.2123 35.0902 13.2123H34.0923Z" fill="#020547"/>
<path d="M47.8423 13.3438C46.6346 13.3438 45.7032 13.0809 45.0482 12.5551C44.3932 12.0293 44.0401 11.302 43.9889 10.3731L43.9735 9.79473L43.9889 9.21638C44.0401 8.29626 44.3983 7.57331 45.0635 7.04753C45.7288 6.51299 46.655 6.24572 47.8423 6.24572C49.0193 6.24572 49.9404 6.51299 50.6056 7.04753C51.2709 7.57331 51.6291 8.29626 51.6803 9.21638C51.6905 9.32153 51.6956 9.51432 51.6956 9.79473C51.6956 10.0752 51.6905 10.2679 51.6803 10.3731C51.6291 11.302 51.276 12.0293 50.621 12.5551C49.966 13.0809 49.0397 13.3438 47.8423 13.3438ZM47.8423 12.0162C48.3847 12.0162 48.7992 11.8716 49.0858 11.5824C49.3826 11.2932 49.5412 10.8682 49.5617 10.3074C49.5719 10.2197 49.5771 10.0489 49.5771 9.79473C49.5771 9.54061 49.5719 9.36973 49.5617 9.2821C49.5412 8.72127 49.3826 8.29626 49.0858 8.00708C48.789 7.70914 48.3745 7.56017 47.8423 7.56017C47.2998 7.56017 46.8802 7.70914 46.5834 8.00708C46.2866 8.29626 46.128 8.72127 46.1075 9.2821L46.0921 9.79473L46.1075 10.3074C46.128 10.8682 46.2866 11.2932 46.5834 11.5824C46.8802 11.8716 47.2998 12.0162 47.8423 12.0162Z" fill="#020547"/>
<path d="M53.7647 13.2123C53.6624 13.2123 53.5754 13.1816 53.5037 13.1203C53.4321 13.059 53.3962 12.9845 53.3962 12.8968V6.70578C53.3962 6.60938 53.4321 6.53052 53.5037 6.46917C53.5754 6.40783 53.6624 6.37716 53.7647 6.37716H55.0236C55.1362 6.37716 55.2283 6.40783 55.2999 6.46917C55.3716 6.53052 55.4074 6.60938 55.4074 6.70578V7.2447C55.9191 6.66634 56.656 6.37716 57.6181 6.37716H58.2629C58.3754 6.37716 58.4624 6.40783 58.5238 6.46917C58.5955 6.52175 58.6313 6.59624 58.6313 6.69263V7.65218C58.6313 7.73981 58.5955 7.8143 58.5238 7.87564C58.4624 7.93698 58.3754 7.96765 58.2629 7.96765H57.05C56.569 7.96765 56.1903 8.08595 55.914 8.32255C55.6377 8.55915 55.4995 8.88338 55.4995 9.29524V12.8968C55.4995 12.9845 55.4637 13.059 55.392 13.1203C55.3204 13.1816 55.2334 13.2123 55.131 13.2123H53.7647Z" fill="#020547"/>
<path d="M60.2117 13.2123C60.1094 13.2123 60.0224 13.1816 59.9507 13.1203C59.8791 13.059 59.8433 12.9845 59.8433 12.8968V4.19517C59.8433 4.09878 59.8791 4.0243 59.9507 3.97172C60.0224 3.91038 60.1094 3.87971 60.2117 3.87971H61.486C61.5883 3.87971 61.6753 3.91038 61.7469 3.97172C61.8186 4.03306 61.8544 4.10754 61.8544 4.19517V8.6906L64.4029 6.60062C64.4336 6.58309 64.4796 6.55242 64.541 6.50861C64.6127 6.45603 64.6792 6.42098 64.7406 6.40345C64.802 6.38593 64.8788 6.37716 64.9709 6.37716H66.4293C66.5317 6.37716 66.6136 6.40345 66.675 6.45603C66.7364 6.50861 66.7671 6.57871 66.7671 6.66634C66.7671 6.74521 66.7159 6.82408 66.6136 6.90294L63.4817 9.43983L66.9974 12.6997C67.0895 12.7785 67.1355 12.853 67.1355 12.9231C67.1355 13.0108 67.1048 13.0809 67.0434 13.1334C66.982 13.186 66.9052 13.2123 66.8131 13.2123H65.324C65.1807 13.2123 65.0732 13.1992 65.0016 13.1729C64.9402 13.1378 64.8583 13.0765 64.756 12.9888L61.8544 10.3468V12.8968C61.8544 12.9845 61.8186 13.059 61.7469 13.1203C61.6753 13.1816 61.5883 13.2123 61.486 13.2123H60.2117Z" fill="#020547"/>
<path d="M68.6056 5.25988C68.5033 5.25988 68.4163 5.22921 68.3446 5.16787C68.273 5.10653 68.2372 5.03204 68.2372 4.94441V3.98486C68.2372 3.88847 68.273 3.8096 68.3446 3.74826C68.4163 3.68692 68.5033 3.65625 68.6056 3.65625H70.018C70.1306 3.65625 70.2227 3.68692 70.2943 3.74826C70.366 3.8096 70.4018 3.88847 70.4018 3.98486V4.94441C70.4018 5.03204 70.3609 5.10653 70.279 5.16787C70.2073 5.22921 70.1203 5.25988 70.018 5.25988H68.6056ZM68.667 13.2123C68.5647 13.2123 68.4777 13.1816 68.406 13.1203C68.3344 13.059 68.2986 12.9845 68.2986 12.8968V6.69263C68.2986 6.59624 68.3344 6.52175 68.406 6.46917C68.4777 6.40783 68.5647 6.37716 68.667 6.37716H69.9719C70.0743 6.37716 70.1613 6.40783 70.2329 6.46917C70.3046 6.53052 70.3404 6.605 70.3404 6.69263V12.8968C70.3404 12.9845 70.3046 13.059 70.2329 13.1203C70.1613 13.1816 70.0743 13.2123 69.9719 13.2123H68.667Z" fill="#020547"/>
<path d="M75.9078 13.3438C74.7001 13.3438 73.7687 13.0809 73.1137 12.5551C72.4587 12.0293 72.1056 11.302 72.0544 10.3731L72.0391 9.79473L72.0544 9.21638C72.1056 8.29626 72.4638 7.57331 73.1291 7.04753C73.7943 6.51299 74.7206 6.24572 75.9078 6.24572C77.0848 6.24572 78.0059 6.51299 78.6712 7.04753C79.3364 7.57331 79.6947 8.29626 79.7458 9.21638C79.7561 9.32153 79.7612 9.51432 79.7612 9.79473C79.7612 10.0752 79.7561 10.2679 79.7458 10.3731C79.6947 11.302 79.3416 12.0293 78.6865 12.5551C78.0315 13.0809 77.1053 13.3438 75.9078 13.3438ZM75.9078 12.0162C76.4502 12.0162 76.8647 11.8716 77.1513 11.5824C77.4481 11.2932 77.6068 10.8682 77.6272 10.3074C77.6375 10.2197 77.6426 10.0489 77.6426 9.79473C77.6426 9.54061 77.6375 9.36973 77.6272 9.2821C77.6068 8.72127 77.4481 8.29626 77.1513 8.00708C76.8545 7.70914 76.44 7.56017 75.9078 7.56017C75.3654 7.56017 74.9457 7.70914 74.6489 8.00708C74.3521 8.29626 74.1935 8.72127 74.173 9.2821L74.1577 9.79473L74.173 10.3074C74.1935 10.8682 74.3521 11.2932 74.6489 11.5824C74.9457 11.8716 75.3654 12.0162 75.9078 12.0162Z" fill="#020547"/>
<path d="M81.8302 13.2123C81.7279 13.2123 81.6409 13.1816 81.5692 13.1203C81.4976 13.059 81.4618 12.9845 81.4618 12.8968V6.69263C81.4618 6.59624 81.4976 6.52175 81.5692 6.46917C81.6409 6.40783 81.7279 6.37716 81.8302 6.37716H83.043C83.1556 6.37716 83.2426 6.40783 83.304 6.46917C83.3757 6.52175 83.4115 6.59624 83.4115 6.69263V7.13954C83.9642 6.54366 84.7062 6.24572 85.6375 6.24572C86.7736 6.24572 87.5668 6.63567 88.0171 7.41558C88.2628 7.06506 88.6107 6.78464 89.0611 6.57433C89.5114 6.35526 89.9975 6.24572 90.5195 6.24572C91.3588 6.24572 92.0445 6.49108 92.5767 6.98181C93.1089 7.47254 93.375 8.18672 93.375 9.12436V12.8968C93.375 12.9845 93.3392 13.059 93.2675 13.1203C93.2061 13.1816 93.1191 13.2123 93.0066 13.2123H91.7323C91.63 13.2123 91.543 13.1816 91.4713 13.1203C91.3997 13.059 91.3639 12.9845 91.3639 12.8968V9.22952C91.3639 8.67745 91.2257 8.27873 90.9494 8.03337C90.6833 7.78801 90.3302 7.66532 89.8901 7.66532C89.4909 7.66532 89.1481 7.79239 88.8615 8.04651C88.5851 8.29188 88.447 8.68621 88.447 9.22952V12.8968C88.447 12.9845 88.4112 13.059 88.3395 13.1203C88.2781 13.1816 88.1911 13.2123 88.0785 13.2123H86.789C86.6866 13.2123 86.5996 13.1816 86.528 13.1203C86.4563 13.059 86.4205 12.9845 86.4205 12.8968V9.22952C86.4205 8.68621 86.2823 8.29188 86.006 8.04651C85.7297 7.79239 85.3766 7.66532 84.9467 7.66532C84.5476 7.66532 84.2047 7.79239 83.9181 8.04651C83.6418 8.29188 83.5036 8.68621 83.5036 9.22952V12.8968C83.5036 12.9845 83.4678 13.059 83.3961 13.1203C83.3347 13.1816 83.2477 13.2123 83.1352 13.2123H81.8302Z" fill="#020547"/>
<path d="M15.2394 13.8705C15.2394 13.8705 12.8151 16.1477 9.48462 14.9719C9.48462 14.9745 12.9644 18.4784 15.2394 13.8705Z" fill="#3A86FF"/>
<path d="M18.1822 5.34758C18.9451 5.14197 19.7481 5.18285 20.489 5.46503C20.5853 5.49847 20.6793 5.53858 20.7707 5.58508C20.8637 5.62945 20.9592 5.66991 21.0498 5.71558C21.1404 5.76125 21.2286 5.82259 21.3168 5.87739L21.4502 5.96222L21.5727 6.05748C21.6559 6.12273 21.7416 6.18797 21.8249 6.25453C21.9082 6.32108 21.9804 6.40068 22.0588 6.47507C22.2152 6.6255 22.3613 6.78773 22.4959 6.96051C23.0475 7.66959 23.4126 8.52206 23.5538 9.4308C23.5636 9.48691 23.5746 9.54433 23.5832 9.60175L23.5979 9.774L23.6223 10.1198C23.6279 10.2359 23.6279 10.3522 23.6223 10.4682C23.6223 10.5844 23.6223 10.7005 23.6089 10.8167C23.5243 11.7501 23.2188 12.6454 22.7212 13.4188C22.6575 13.514 22.5877 13.6041 22.5216 13.6967C22.4566 13.7884 22.3863 13.8755 22.311 13.9577C22.1654 14.1297 22.0087 14.2906 21.842 14.4392C21.7588 14.5123 21.678 14.5906 21.591 14.6585L21.3217 14.8529C21.2776 14.8842 21.2323 14.9182 21.187 14.9482L21.0449 15.0304L20.7596 15.1922C20.6629 15.2418 20.5613 15.2809 20.4633 15.3227C20.3652 15.3682 20.2646 15.4074 20.1621 15.4401C19.9592 15.5086 19.7522 15.5627 19.5426 15.602C18.7223 15.7635 17.8763 15.6864 17.0937 15.3788C16.354 15.0891 15.7138 14.5678 15.2571 13.8833C15.588 14.0427 15.9313 14.1711 16.2831 14.267C16.4501 14.3125 16.6194 14.3483 16.7901 14.374C16.9564 14.4008 17.124 14.4173 17.2921 14.4236C17.4552 14.4327 17.6187 14.4327 17.7818 14.4236C17.9425 14.4144 18.1025 14.3939 18.2606 14.3622C18.4161 14.3231 18.5716 14.3074 18.721 14.2526L18.9438 14.1848C19.0161 14.1534 19.0883 14.1247 19.1593 14.096C19.4419 13.9808 19.7126 13.8352 19.9674 13.6615C20.4553 13.3099 20.8717 12.8572 21.1919 12.3304L21.2996 12.1308L21.3547 12.0316C21.3719 11.9964 21.3841 11.9611 21.4 11.9259L21.4931 11.7184C21.5237 11.6492 21.5421 11.5735 21.569 11.5018L21.6069 11.3948C21.6216 11.3596 21.6327 11.3228 21.64 11.2851C21.6584 11.2108 21.6755 11.1364 21.6963 11.0633C21.7049 11.0255 21.7171 10.9889 21.7245 10.9511L21.7416 10.8375C21.7539 10.7619 21.7661 10.6862 21.7796 10.6092C21.7931 10.5322 21.7918 10.4552 21.7992 10.3782L21.809 10.2621C21.8147 10.2237 21.8168 10.1848 21.8151 10.1459V9.79488C21.8151 9.75704 21.8078 9.71789 21.8041 9.67874L21.7833 9.44515C21.7751 9.36757 21.7633 9.29048 21.7478 9.21418C21.7318 9.13718 21.7245 9.05758 21.7049 8.98189L21.6449 8.75353L21.6167 8.63738L21.5763 8.52516C21.5506 8.45077 21.5237 8.37639 21.4992 8.2994C21.4747 8.22241 21.4355 8.15324 21.4037 8.07886C21.374 8.00408 21.3401 7.9313 21.3021 7.86093C21.22 7.72391 21.1539 7.57123 21.0572 7.44074C21.0107 7.37288 20.969 7.30241 20.92 7.23586C20.8711 7.1693 20.8196 7.10536 20.7694 7.04142L20.6935 6.94224L20.609 6.8522C20.5527 6.79087 20.4964 6.73084 20.4401 6.66689C20.3837 6.60295 20.3176 6.55336 20.2564 6.49464C20.1955 6.43545 20.1318 6.3797 20.0654 6.32761C19.9331 6.21811 19.795 6.11701 19.6515 6.02485L19.4311 5.88131C19.354 5.84216 19.2769 5.8004 19.1973 5.75864C19.0378 5.6749 18.8743 5.59998 18.7075 5.53419C18.6227 5.49762 18.5361 5.46625 18.4479 5.44023C18.361 5.41152 18.2728 5.3802 18.1822 5.34758Z" fill="#FDBC0B"/>
<path d="M5.52812 4.69336C5.52812 4.69336 1.63812 5.25841 0.68797 8.27808C-0.240144 11.2273 0.932854 14.2222 3.7172 15.5036C6.75254 16.8986 12.069 15.1122 15.168 9.6235L16.0104 10.6975L17.1491 6.58164L13.7281 8.72308L14.8399 9.31683C14.8399 9.31683 9.78055 15.9251 4.32818 13.7641C3.68346 13.4815 3.13628 12.9937 2.76133 12.3673C2.38639 11.7409 2.20195 11.0065 2.23319 10.2642C2.28095 7.57993 4.26696 6.70822 6.08768 6.39894L6.00687 6.20581" fill="#9635F0"/>
<path d="M16.0769 3.70626C16.0769 3.70626 14.3064 0.228544 9.98293 0.81708C5.65948 1.40562 3.90488 5.35312 7.14226 7.32491C7.14226 7.32491 5.17094 3.33826 10.3368 1.99937C13.5987 1.15506 16.0769 3.70626 16.0769 3.70626Z" fill="#FF006E"/>
</svg>
