<svg width="14" height="13" viewBox="0 0 14 13" fill="none" xmlns="http://www.w3.org/2000/svg">
<path d="M13.1133 8.76663L9.17332 2.19997C8.65332 1.3333 7.86666 0.839966 6.99999 0.839966C6.13332 0.839966 5.34666 1.3333 4.82666 2.1933L0.886655 8.76663C0.593322 9.2533 0.446655 9.75997 0.446655 10.24C0.446655 10.62 0.539989 10.9933 0.726655 11.32C1.15332 12.0666 1.97999 12.5 2.99999 12.5H11C12.02 12.5 12.8467 12.0666 13.2733 11.32C13.46 10.9933 13.5533 10.64 13.5533 10.2666C13.56 9.7733 13.4133 9.25997 13.1133 8.76663ZM6.99999 4.1333C7.56666 4.1333 8.03332 4.59997 8.03332 5.16663C8.03332 5.7333 7.57332 6.19997 6.99999 6.19997C6.43332 6.19997 5.96666 5.7333 5.96666 5.16663C5.96666 4.5933 6.42666 4.1333 6.99999 4.1333ZM8.12666 9.7733C8.10666 9.79997 7.59332 10.3866 6.74666 10.3866H6.64666C6.30666 10.3666 6.02666 10.22 5.85999 9.96663C5.65332 9.6533 5.61999 9.22663 5.77999 8.7533L6.05332 7.93997C6.20666 7.48663 6.05999 7.4133 5.97999 7.3733L5.88666 7.35997C5.71999 7.35997 5.48666 7.45997 5.41332 7.49997C5.34666 7.5333 5.25999 7.51997 5.20666 7.4533C5.15999 7.38663 5.15999 7.29997 5.21332 7.23997C5.23332 7.2133 5.79332 6.57997 6.69332 6.6333C7.03332 6.6533 7.31332 6.79997 7.47999 7.0533C7.69332 7.36663 7.71999 7.7933 7.55999 8.2733L7.28666 9.08663C7.13332 9.53997 7.27999 9.6133 7.35999 9.6533L7.45332 9.66663C7.61999 9.66663 7.85332 9.56663 7.92666 9.5333C7.99999 9.4933 8.07999 9.5133 8.13332 9.57997C8.17999 9.62663 8.17999 9.7133 8.12666 9.7733Z" fill="#F5C044"/>
</svg>
