<svg width="12" height="14" viewBox="0 0 12 14" fill="none" xmlns="http://www.w3.org/2000/svg">
<path d="M4.5 9.963C4.5 10.3721 4.16421 10.7037 3.75 10.7037C3.33579 10.7037 3 10.3721 3 9.963C3 9.5539 3.33579 9.22226 3.75 9.22226C4.16421 9.22226 4.5 9.5539 4.5 9.963Z" fill="#0E0F12"/>
<path d="M6 10.7037C6.41421 10.7037 6.75 10.3721 6.75 9.963C6.75 9.5539 6.41421 9.22226 6 9.22226C5.58579 9.22226 5.25 9.5539 5.25 9.963C5.25 10.3721 5.58579 10.7037 6 10.7037Z" fill="#0E0F12"/>
<path d="M8.25 10.7037C8.66421 10.7037 9 10.3721 9 9.963C9 9.5539 8.66421 9.22226 8.25 9.22226C7.83579 9.22226 7.5 9.5539 7.5 9.963C7.5 10.3721 7.83579 10.7037 8.25 10.7037Z" fill="#0E0F12"/>
<path fill-rule="evenodd" clip-rule="evenodd" d="M9.6 3.96974V5.78792H10.2C11.1941 5.78792 12 6.60195 12 7.6061V11.8485C12 12.8527 11.1941 13.6667 10.2 13.6667H1.8C0.805887 13.6667 0 12.8527 0 11.8485V7.6061C0 6.60195 0.805887 5.78792 1.8 5.78792H2.4V3.96974C2.4 3.00531 2.77928 2.08039 3.45442 1.39844C4.12955 0.71649 5.04522 0.333374 6 0.333374C6.95478 0.333374 7.87045 0.71649 8.54558 1.39844C9.22072 2.08039 9.6 3.00531 9.6 3.96974ZM1.2 7.6061C1.2 7.27138 1.46863 7.00004 1.8 7.00004H10.2C10.5314 7.00004 10.8 7.27138 10.8 7.6061V11.8485C10.8 12.1832 10.5314 12.4546 10.2 12.4546H1.8C1.46863 12.4546 1.2 12.1832 1.2 11.8485V7.6061ZM4.3028 2.25553C4.75288 1.8009 5.36333 1.54549 5.99985 1.54549C6.63637 1.54549 7.24682 1.8009 7.69691 2.25553C8.147 2.71016 8.39985 3.32678 8.39985 3.96973V5.78791H3.59985V3.96973C3.59985 3.32678 3.85271 2.71016 4.3028 2.25553Z" fill="#0E0F12"/>
</svg>
