<svg width="249" height="31" viewBox="0 0 249 31" fill="none" xmlns="http://www.w3.org/2000/svg">
<path d="M0.349373 10C0.254039 10 0.180373 9.974 0.128373 9.922C0.0763726 9.86133 0.0503726 9.78767 0.0503726 9.701V1.212C0.0503726 1.11667 0.0763726 1.043 0.128373 0.991C0.180373 0.930333 0.254039 0.899999 0.349373 0.899999H3.91137C4.56137 0.899999 5.09004 1.00833 5.49737 1.225C5.91337 1.433 6.21671 1.719 6.40737 2.083C6.60671 2.447 6.70637 2.85433 6.70637 3.305C6.70637 3.66033 6.64571 3.968 6.52437 4.228C6.41171 4.47933 6.26871 4.68733 6.09537 4.852C5.92204 5.008 5.75304 5.12933 5.58837 5.216C5.92637 5.38067 6.22537 5.64933 6.48537 6.022C6.75404 6.39467 6.88837 6.84533 6.88837 7.374C6.88837 7.85067 6.78004 8.28833 6.56337 8.687C6.34671 9.08567 6.02171 9.40633 5.58837 9.649C5.16371 9.883 4.63937 10 4.01537 10H0.349373ZM1.32437 8.947H3.84637C4.40104 8.947 4.83004 8.79533 5.13337 8.492C5.43671 8.18867 5.58837 7.816 5.58837 7.374C5.58837 6.91467 5.43671 6.53767 5.13337 6.243C4.83004 5.93967 4.40104 5.788 3.84637 5.788H1.32437V8.947ZM1.32437 4.748H3.71637C4.27104 4.748 4.69137 4.62233 4.97737 4.371C5.26337 4.111 5.40637 3.76 5.40637 3.318C5.40637 2.876 5.26337 2.538 4.97737 2.304C4.69137 2.07 4.27104 1.953 3.71637 1.953H1.32437V4.748ZM9.66997 12.47C9.60063 12.47 9.53997 12.444 9.48797 12.392C9.43597 12.34 9.40997 12.2793 9.40997 12.21C9.40997 12.1753 9.4143 12.1407 9.42297 12.106C9.43163 12.0713 9.44897 12.028 9.47497 11.976L10.476 9.597L7.99297 3.734C7.94963 3.63 7.92797 3.55633 7.92797 3.513C7.92797 3.435 7.95397 3.37 8.00597 3.318C8.05797 3.266 8.12297 3.24 8.20097 3.24H8.83797C8.9333 3.24 9.00263 3.26167 9.04597 3.305C9.09797 3.34833 9.13263 3.40033 9.14997 3.461L11.126 8.193L13.154 3.461C13.18 3.40033 13.2146 3.34833 13.258 3.305C13.31 3.26167 13.3836 3.24 13.479 3.24H14.09C14.168 3.24 14.233 3.266 14.285 3.318C14.337 3.37 14.363 3.43067 14.363 3.5C14.363 3.54333 14.3413 3.62133 14.298 3.734L10.606 12.249C10.58 12.3097 10.541 12.3617 10.489 12.405C10.4456 12.4483 10.3763 12.47 10.281 12.47H9.66997ZM20.6876 10.13C20.2022 10.13 19.7862 10.0693 19.4396 9.948C19.0929 9.82667 18.8112 9.67933 18.5946 9.506C18.3779 9.33267 18.2132 9.15933 18.1006 8.986C17.9966 8.81267 17.9402 8.674 17.9316 8.57C17.9229 8.47467 17.9532 8.401 18.0226 8.349C18.0919 8.297 18.1612 8.271 18.2306 8.271H18.8156C18.8589 8.271 18.8936 8.27967 18.9196 8.297C18.9542 8.30567 18.9976 8.34033 19.0496 8.401C19.1622 8.52233 19.2879 8.64367 19.4266 8.765C19.5652 8.88633 19.7342 8.986 19.9336 9.064C20.1416 9.142 20.3972 9.181 20.7006 9.181C21.1426 9.181 21.5066 9.09867 21.7926 8.934C22.0786 8.76067 22.2216 8.50933 22.2216 8.18C22.2216 7.96333 22.1609 7.79 22.0396 7.66C21.9269 7.53 21.7189 7.413 21.4156 7.309C21.1209 7.205 20.7136 7.09667 20.1936 6.984C19.6736 6.86267 19.2619 6.71533 18.9586 6.542C18.6552 6.36 18.4386 6.14767 18.3086 5.905C18.1786 5.65367 18.1136 5.372 18.1136 5.06C18.1136 4.73933 18.2089 4.43167 18.3996 4.137C18.5902 3.83367 18.8676 3.58667 19.2316 3.396C19.6042 3.20533 20.0679 3.11 20.6226 3.11C21.0732 3.11 21.4589 3.16633 21.7796 3.279C22.1002 3.39167 22.3646 3.53467 22.5726 3.708C22.7806 3.87267 22.9366 4.03733 23.0406 4.202C23.1446 4.36667 23.2009 4.50533 23.2096 4.618C23.2182 4.70467 23.1922 4.77833 23.1316 4.839C23.0709 4.891 23.0016 4.917 22.9236 4.917H22.3776C22.3169 4.917 22.2649 4.904 22.2216 4.878C22.1869 4.852 22.1522 4.82167 22.1176 4.787C22.0309 4.67433 21.9269 4.56167 21.8056 4.449C21.6929 4.33633 21.5412 4.24533 21.3506 4.176C21.1686 4.098 20.9259 4.059 20.6226 4.059C20.1892 4.059 19.8642 4.15 19.6476 4.332C19.4309 4.514 19.3226 4.74367 19.3226 5.021C19.3226 5.18567 19.3702 5.333 19.4656 5.463C19.5609 5.593 19.7429 5.71 20.0116 5.814C20.2802 5.918 20.6789 6.03067 21.2076 6.152C21.7796 6.26467 22.2302 6.41633 22.5596 6.607C22.8889 6.79767 23.1229 7.01867 23.2616 7.27C23.4002 7.52133 23.4696 7.81167 23.4696 8.141C23.4696 8.505 23.3656 8.83867 23.1576 9.142C22.9496 9.44533 22.6376 9.688 22.2216 9.87C21.8056 10.0433 21.2942 10.13 20.6876 10.13ZM25.1955 10C25.1089 10 25.0352 9.974 24.9745 9.922C24.9225 9.86133 24.8965 9.78767 24.8965 9.701V3.539C24.8965 3.45233 24.9225 3.383 24.9745 3.331C25.0352 3.27033 25.1089 3.24 25.1955 3.24H25.8195C25.9062 3.24 25.9755 3.27033 26.0275 3.331C26.0882 3.383 26.1185 3.45233 26.1185 3.539V9.701C26.1185 9.78767 26.0882 9.86133 26.0275 9.922C25.9755 9.974 25.9062 10 25.8195 10H25.1955ZM25.0915 1.979C25.0049 1.979 24.9312 1.953 24.8705 1.901C24.8185 1.84033 24.7925 1.76667 24.7925 1.68V0.978C24.7925 0.891333 24.8185 0.817666 24.8705 0.757C24.9312 0.696333 25.0049 0.665999 25.0915 0.665999H25.9105C25.9972 0.665999 26.0709 0.696333 26.1315 0.757C26.1922 0.817666 26.2225 0.891333 26.2225 0.978V1.68C26.2225 1.76667 26.1922 1.84033 26.1315 1.901C26.0709 1.953 25.9972 1.979 25.9105 1.979H25.0915ZM30.736 12.86C30.1466 12.86 29.6613 12.782 29.28 12.626C28.9073 12.47 28.6126 12.2793 28.396 12.054C28.188 11.8373 28.0363 11.6163 27.941 11.391C27.8543 11.1743 27.8066 11.001 27.798 10.871C27.7893 10.7843 27.8153 10.7107 27.876 10.65C27.9453 10.5893 28.019 10.559 28.097 10.559H28.721C28.799 10.559 28.864 10.5763 28.916 10.611C28.968 10.6457 29.0113 10.7193 29.046 10.832C29.098 10.962 29.176 11.105 29.28 11.261C29.384 11.4257 29.5443 11.5643 29.761 11.677C29.9776 11.7983 30.281 11.859 30.671 11.859C31.0783 11.859 31.4206 11.8027 31.698 11.69C31.9753 11.5773 32.1833 11.3867 32.322 11.118C32.4693 10.8493 32.543 10.4767 32.543 10V9.116C32.335 9.38467 32.062 9.61 31.724 9.792C31.386 9.96533 30.9613 10.052 30.45 10.052C29.9646 10.052 29.5486 9.96967 29.202 9.805C28.8553 9.63167 28.5693 9.402 28.344 9.116C28.1273 8.82133 27.9626 8.48767 27.85 8.115C27.746 7.74233 27.6853 7.35233 27.668 6.945C27.6593 6.70233 27.6593 6.464 27.668 6.23C27.6853 5.82267 27.746 5.43267 27.85 5.06C27.9626 4.68733 28.1273 4.35367 28.344 4.059C28.5693 3.76433 28.8553 3.53467 29.202 3.37C29.5486 3.19667 29.9646 3.11 30.45 3.11C30.97 3.11 31.399 3.20533 31.737 3.396C32.0836 3.58667 32.3653 3.825 32.582 4.111V3.552C32.582 3.46533 32.608 3.39167 32.66 3.331C32.7206 3.27033 32.7943 3.24 32.881 3.24H33.479C33.5656 3.24 33.6393 3.27033 33.7 3.331C33.7606 3.39167 33.791 3.46533 33.791 3.552V9.857C33.791 10.4377 33.6913 10.9533 33.492 11.404C33.3013 11.8547 32.9806 12.21 32.53 12.47C32.088 12.73 31.49 12.86 30.736 12.86ZM30.71 9.012C31.1433 9.012 31.49 8.91233 31.75 8.713C32.0186 8.51367 32.2136 8.26233 32.335 7.959C32.465 7.65567 32.5343 7.348 32.543 7.036C32.5516 6.91467 32.556 6.76733 32.556 6.594C32.556 6.412 32.5516 6.26033 32.543 6.139C32.5343 5.827 32.465 5.51933 32.335 5.216C32.2136 4.91267 32.0186 4.66133 31.75 4.462C31.49 4.26267 31.1433 4.163 30.71 4.163C30.2766 4.163 29.93 4.26267 29.67 4.462C29.41 4.65267 29.2236 4.90833 29.111 5.229C28.9983 5.541 28.9333 5.879 28.916 6.243C28.9073 6.46833 28.9073 6.698 28.916 6.932C28.9333 7.296 28.9983 7.63833 29.111 7.959C29.2236 8.271 29.41 8.52667 29.67 8.726C29.93 8.91667 30.2766 9.012 30.71 9.012ZM35.9448 10C35.8581 10 35.7845 9.974 35.7238 9.922C35.6718 9.86133 35.6458 9.78767 35.6458 9.701V3.539C35.6458 3.45233 35.6718 3.383 35.7238 3.331C35.7845 3.27033 35.8581 3.24 35.9448 3.24H36.5558C36.6425 3.24 36.7118 3.27033 36.7638 3.331C36.8245 3.383 36.8548 3.45233 36.8548 3.539V4.111C37.0801 3.81633 37.3618 3.578 37.6998 3.396C38.0465 3.20533 38.4885 3.11 39.0258 3.11C39.5891 3.11 40.0658 3.23567 40.4558 3.487C40.8545 3.72967 41.1535 4.072 41.3528 4.514C41.5608 4.94733 41.6648 5.45433 41.6648 6.035V9.701C41.6648 9.78767 41.6345 9.86133 41.5738 9.922C41.5218 9.974 41.4525 10 41.3658 10H40.7158C40.6291 10 40.5555 9.974 40.4948 9.922C40.4428 9.86133 40.4168 9.78767 40.4168 9.701V6.1C40.4168 5.49333 40.2695 5.021 39.9748 4.683C39.6801 4.33633 39.2468 4.163 38.6748 4.163C38.1375 4.163 37.7041 4.33633 37.3748 4.683C37.0541 5.021 36.8938 5.49333 36.8938 6.1V9.701C36.8938 9.78767 36.8635 9.86133 36.8028 9.922C36.7508 9.974 36.6815 10 36.5948 10H35.9448ZM43.7506 10C43.6639 10 43.5902 9.974 43.5296 9.922C43.4776 9.86133 43.4516 9.78767 43.4516 9.701V3.539C43.4516 3.45233 43.4776 3.383 43.5296 3.331C43.5902 3.27033 43.6639 3.24 43.7506 3.24H44.3746C44.4612 3.24 44.5306 3.27033 44.5826 3.331C44.6432 3.383 44.6736 3.45233 44.6736 3.539V9.701C44.6736 9.78767 44.6432 9.86133 44.5826 9.922C44.5306 9.974 44.4612 10 44.3746 10H43.7506ZM43.6466 1.979C43.5599 1.979 43.4862 1.953 43.4256 1.901C43.3736 1.84033 43.3476 1.76667 43.3476 1.68V0.978C43.3476 0.891333 43.3736 0.817666 43.4256 0.757C43.4862 0.696333 43.5599 0.665999 43.6466 0.665999H44.4656C44.5522 0.665999 44.6259 0.696333 44.6866 0.757C44.7472 0.817666 44.7776 0.891333 44.7776 0.978V1.68C44.7776 1.76667 44.7472 1.84033 44.6866 1.901C44.6259 1.953 44.5522 1.979 44.4656 1.979H43.6466ZM46.9353 10C46.8486 10 46.7749 9.974 46.7143 9.922C46.6623 9.86133 46.6363 9.78767 46.6363 9.701V3.539C46.6363 3.45233 46.6623 3.383 46.7143 3.331C46.7749 3.27033 46.8486 3.24 46.9353 3.24H47.5463C47.6329 3.24 47.7023 3.27033 47.7543 3.331C47.8149 3.383 47.8453 3.45233 47.8453 3.539V4.111C48.0706 3.81633 48.3523 3.578 48.6903 3.396C49.0369 3.20533 49.4789 3.11 50.0163 3.11C50.5796 3.11 51.0563 3.23567 51.4463 3.487C51.8449 3.72967 52.1439 4.072 52.3433 4.514C52.5513 4.94733 52.6553 5.45433 52.6553 6.035V9.701C52.6553 9.78767 52.6249 9.86133 52.5643 9.922C52.5123 9.974 52.4429 10 52.3563 10H51.7063C51.6196 10 51.5459 9.974 51.4853 9.922C51.4333 9.86133 51.4073 9.78767 51.4073 9.701V6.1C51.4073 5.49333 51.2599 5.021 50.9653 4.683C50.6706 4.33633 50.2373 4.163 49.6653 4.163C49.1279 4.163 48.6946 4.33633 48.3653 4.683C48.0446 5.021 47.8843 5.49333 47.8843 6.1V9.701C47.8843 9.78767 47.8539 9.86133 47.7933 9.922C47.7413 9.974 47.6719 10 47.5853 10H46.9353ZM57.2111 12.86C56.6217 12.86 56.1364 12.782 55.7551 12.626C55.3824 12.47 55.0877 12.2793 54.8711 12.054C54.6631 11.8373 54.5114 11.6163 54.4161 11.391C54.3294 11.1743 54.2817 11.001 54.2731 10.871C54.2644 10.7843 54.2904 10.7107 54.3511 10.65C54.4204 10.5893 54.4941 10.559 54.5721 10.559H55.1961C55.2741 10.559 55.3391 10.5763 55.3911 10.611C55.4431 10.6457 55.4864 10.7193 55.5211 10.832C55.5731 10.962 55.6511 11.105 55.7551 11.261C55.8591 11.4257 56.0194 11.5643 56.2361 11.677C56.4527 11.7983 56.7561 11.859 57.1461 11.859C57.5534 11.859 57.8957 11.8027 58.1731 11.69C58.4504 11.5773 58.6584 11.3867 58.7971 11.118C58.9444 10.8493 59.0181 10.4767 59.0181 10V9.116C58.8101 9.38467 58.5371 9.61 58.1991 9.792C57.8611 9.96533 57.4364 10.052 56.9251 10.052C56.4397 10.052 56.0237 9.96967 55.6771 9.805C55.3304 9.63167 55.0444 9.402 54.8191 9.116C54.6024 8.82133 54.4377 8.48767 54.3251 8.115C54.2211 7.74233 54.1604 7.35233 54.1431 6.945C54.1344 6.70233 54.1344 6.464 54.1431 6.23C54.1604 5.82267 54.2211 5.43267 54.3251 5.06C54.4377 4.68733 54.6024 4.35367 54.8191 4.059C55.0444 3.76433 55.3304 3.53467 55.6771 3.37C56.0237 3.19667 56.4397 3.11 56.9251 3.11C57.4451 3.11 57.8741 3.20533 58.2121 3.396C58.5587 3.58667 58.8404 3.825 59.0571 4.111V3.552C59.0571 3.46533 59.0831 3.39167 59.1351 3.331C59.1957 3.27033 59.2694 3.24 59.3561 3.24H59.9541C60.0407 3.24 60.1144 3.27033 60.1751 3.331C60.2357 3.39167 60.2661 3.46533 60.2661 3.552V9.857C60.2661 10.4377 60.1664 10.9533 59.9671 11.404C59.7764 11.8547 59.4557 12.21 59.0051 12.47C58.5631 12.73 57.9651 12.86 57.2111 12.86ZM57.1851 9.012C57.6184 9.012 57.9651 8.91233 58.2251 8.713C58.4937 8.51367 58.6887 8.26233 58.8101 7.959C58.9401 7.65567 59.0094 7.348 59.0181 7.036C59.0267 6.91467 59.0311 6.76733 59.0311 6.594C59.0311 6.412 59.0267 6.26033 59.0181 6.139C59.0094 5.827 58.9401 5.51933 58.8101 5.216C58.6887 4.91267 58.4937 4.66133 58.2251 4.462C57.9651 4.26267 57.6184 4.163 57.1851 4.163C56.7517 4.163 56.4051 4.26267 56.1451 4.462C55.8851 4.65267 55.6987 4.90833 55.5861 5.229C55.4734 5.541 55.4084 5.879 55.3911 6.243C55.3824 6.46833 55.3824 6.698 55.3911 6.932C55.4084 7.296 55.4734 7.63833 55.5861 7.959C55.6987 8.271 55.8851 8.52667 56.1451 8.726C56.4051 8.91667 56.7517 9.012 57.1851 9.012ZM67.7514 10.13C67.1968 10.13 66.7244 10.0087 66.3344 9.766C65.9531 9.51467 65.6628 9.168 65.4634 8.726C65.2641 8.284 65.1644 7.777 65.1644 7.205V3.539C65.1644 3.45233 65.1904 3.383 65.2424 3.331C65.3031 3.27033 65.3768 3.24 65.4634 3.24H66.1134C66.2001 3.24 66.2694 3.27033 66.3214 3.331C66.3821 3.383 66.4124 3.45233 66.4124 3.539V7.14C66.4124 8.43133 66.9758 9.077 68.1024 9.077C68.6398 9.077 69.0688 8.908 69.3894 8.57C69.7188 8.22333 69.8834 7.74667 69.8834 7.14V3.539C69.8834 3.45233 69.9094 3.383 69.9614 3.331C70.0221 3.27033 70.0958 3.24 70.1824 3.24H70.8324C70.9191 3.24 70.9884 3.27033 71.0404 3.331C71.0924 3.383 71.1184 3.45233 71.1184 3.539V9.701C71.1184 9.78767 71.0924 9.86133 71.0404 9.922C70.9884 9.974 70.9191 10 70.8324 10H70.2214C70.1348 10 70.0611 9.974 70.0004 9.922C69.9484 9.86133 69.9224 9.78767 69.9224 9.701V9.129C69.6884 9.43233 69.4024 9.675 69.0644 9.857C68.7351 10.039 68.2974 10.13 67.7514 10.13ZM73.2837 12.47C73.1971 12.47 73.1234 12.4397 73.0627 12.379C73.0107 12.327 72.9847 12.2577 72.9847 12.171V3.539C72.9847 3.45233 73.0107 3.383 73.0627 3.331C73.1234 3.27033 73.1971 3.24 73.2837 3.24H73.8817C73.9684 3.24 74.0377 3.27033 74.0897 3.331C74.1504 3.383 74.1807 3.45233 74.1807 3.539V4.111C74.3887 3.825 74.6661 3.58667 75.0127 3.396C75.3594 3.20533 75.7927 3.11 76.3127 3.11C76.7981 3.11 77.2097 3.19233 77.5477 3.357C77.8944 3.52167 78.1761 3.747 78.3927 4.033C78.6181 4.319 78.7871 4.644 78.8997 5.008C79.0124 5.372 79.0774 5.762 79.0947 6.178C79.1034 6.31667 79.1077 6.464 79.1077 6.62C79.1077 6.776 79.1034 6.92333 79.0947 7.062C79.0774 7.46933 79.0124 7.85933 78.8997 8.232C78.7871 8.596 78.6181 8.921 78.3927 9.207C78.1761 9.48433 77.8944 9.70967 77.5477 9.883C77.2097 10.0477 76.7981 10.13 76.3127 10.13C75.8101 10.13 75.3854 10.039 75.0387 9.857C74.7007 9.66633 74.4234 9.43233 74.2067 9.155V12.171C74.2067 12.2577 74.1807 12.327 74.1287 12.379C74.0767 12.4397 74.0074 12.47 73.9207 12.47H73.2837ZM76.0397 9.077C76.4904 9.077 76.8414 8.98167 77.0927 8.791C77.3527 8.59167 77.5391 8.336 77.6517 8.024C77.7644 7.70333 77.8294 7.361 77.8467 6.997C77.8554 6.74567 77.8554 6.49433 77.8467 6.243C77.8294 5.879 77.7644 5.541 77.6517 5.229C77.5391 4.90833 77.3527 4.65267 77.0927 4.462C76.8414 4.26267 76.4904 4.163 76.0397 4.163C75.6151 4.163 75.2684 4.26267 74.9997 4.462C74.7397 4.66133 74.5447 4.917 74.4147 5.229C74.2934 5.53233 74.2241 5.84433 74.2067 6.165C74.1981 6.30367 74.1937 6.46833 74.1937 6.659C74.1937 6.84967 74.1981 7.01867 74.2067 7.166C74.2154 7.46933 74.2847 7.76833 74.4147 8.063C74.5534 8.35767 74.7571 8.60033 75.0257 8.791C75.2944 8.98167 75.6324 9.077 76.0397 9.077ZM80.4199 10.975C80.3506 10.975 80.2943 10.949 80.2509 10.897C80.2163 10.845 80.2033 10.78 80.2119 10.702L80.5109 8.843C80.5283 8.739 80.5629 8.65233 80.6149 8.583C80.6756 8.505 80.7623 8.466 80.8749 8.466H81.7459C81.8066 8.466 81.8543 8.48767 81.8889 8.531C81.9323 8.57433 81.9539 8.62633 81.9539 8.687C81.9539 8.75633 81.9409 8.82567 81.9149 8.895L81.2259 10.676C81.1913 10.7627 81.1436 10.832 81.0829 10.884C81.0309 10.9447 80.9529 10.975 80.8489 10.975H80.4199ZM87.6063 12.47C87.537 12.47 87.4763 12.444 87.4243 12.392C87.3723 12.34 87.3463 12.2793 87.3463 12.21C87.3463 12.1753 87.3506 12.1407 87.3593 12.106C87.368 12.0713 87.3853 12.028 87.4113 11.976L88.4123 9.597L85.9293 3.734C85.886 3.63 85.8643 3.55633 85.8643 3.513C85.8643 3.435 85.8903 3.37 85.9423 3.318C85.9943 3.266 86.0593 3.24 86.1373 3.24H86.7743C86.8696 3.24 86.939 3.26167 86.9823 3.305C87.0343 3.34833 87.069 3.40033 87.0863 3.461L89.0623 8.193L91.0903 3.461C91.1163 3.40033 91.151 3.34833 91.1943 3.305C91.2463 3.26167 91.32 3.24 91.4153 3.24H92.0263C92.1043 3.24 92.1693 3.266 92.2213 3.318C92.2733 3.37 92.2993 3.43067 92.2993 3.5C92.2993 3.54333 92.2776 3.62133 92.2343 3.734L88.5423 12.249C88.5163 12.3097 88.4773 12.3617 88.4253 12.405C88.382 12.4483 88.3126 12.47 88.2173 12.47H87.6063ZM96.0586 10.13C95.4 10.13 94.8496 10.0043 94.4076 9.753C93.9656 9.50167 93.6276 9.155 93.3936 8.713C93.1596 8.26233 93.0296 7.751 93.0036 7.179C92.995 7.03167 92.9906 6.84533 92.9906 6.62C92.9906 6.386 92.995 6.19967 93.0036 6.061C93.0296 5.48033 93.1596 4.969 93.3936 4.527C93.6363 4.085 93.9786 3.73833 94.4206 3.487C94.8626 3.23567 95.4086 3.11 96.0586 3.11C96.7086 3.11 97.2546 3.23567 97.6966 3.487C98.1386 3.73833 98.4766 4.085 98.7106 4.527C98.9533 4.969 99.0876 5.48033 99.1136 6.061C99.1223 6.19967 99.1266 6.386 99.1266 6.62C99.1266 6.84533 99.1223 7.03167 99.1136 7.179C99.0876 7.751 98.9576 8.26233 98.7236 8.713C98.4896 9.155 98.1516 9.50167 97.7096 9.753C97.2676 10.0043 96.7173 10.13 96.0586 10.13ZM96.0586 9.129C96.596 9.129 97.025 8.96 97.3456 8.622C97.6663 8.27533 97.8396 7.77267 97.8656 7.114C97.8743 6.984 97.8786 6.81933 97.8786 6.62C97.8786 6.42067 97.8743 6.256 97.8656 6.126C97.8396 5.46733 97.6663 4.969 97.3456 4.631C97.025 4.28433 96.596 4.111 96.0586 4.111C95.5213 4.111 95.088 4.28433 94.7586 4.631C94.438 4.969 94.269 5.46733 94.2516 6.126C94.243 6.256 94.2386 6.42067 94.2386 6.62C94.2386 6.81933 94.243 6.984 94.2516 7.114C94.269 7.77267 94.438 8.27533 94.7586 8.622C95.088 8.96 95.5213 9.129 96.0586 9.129ZM103.198 10.13C102.644 10.13 102.171 10.0087 101.781 9.766C101.4 9.51467 101.11 9.168 100.91 8.726C100.711 8.284 100.611 7.777 100.611 7.205V3.539C100.611 3.45233 100.637 3.383 100.689 3.331C100.75 3.27033 100.824 3.24 100.91 3.24H101.56C101.647 3.24 101.716 3.27033 101.768 3.331C101.829 3.383 101.859 3.45233 101.859 3.539V7.14C101.859 8.43133 102.423 9.077 103.549 9.077C104.087 9.077 104.516 8.908 104.836 8.57C105.166 8.22333 105.33 7.74667 105.33 7.14V3.539C105.33 3.45233 105.356 3.383 105.408 3.331C105.469 3.27033 105.543 3.24 105.629 3.24H106.279C106.366 3.24 106.435 3.27033 106.487 3.331C106.539 3.383 106.565 3.45233 106.565 3.539V9.701C106.565 9.78767 106.539 9.86133 106.487 9.922C106.435 9.974 106.366 10 106.279 10H105.668C105.582 10 105.508 9.974 105.447 9.922C105.395 9.86133 105.369 9.78767 105.369 9.701V9.129C105.135 9.43233 104.849 9.675 104.511 9.857C104.182 10.039 103.744 10.13 103.198 10.13ZM113.412 10.13C112.979 10.13 112.585 10.0433 112.229 9.87C111.874 9.69667 111.588 9.46267 111.371 9.168C111.155 8.87333 111.046 8.53967 111.046 8.167C111.046 7.569 111.289 7.09233 111.774 6.737C112.26 6.38167 112.892 6.14767 113.672 6.035L115.609 5.762V5.385C115.609 4.969 115.488 4.644 115.245 4.41C115.011 4.176 114.626 4.059 114.088 4.059C113.707 4.059 113.395 4.137 113.152 4.293C112.91 4.449 112.741 4.64833 112.645 4.891C112.593 5.021 112.502 5.086 112.372 5.086H111.787C111.692 5.086 111.618 5.06 111.566 5.008C111.523 4.94733 111.501 4.878 111.501 4.8C111.501 4.67 111.549 4.50967 111.644 4.319C111.748 4.12833 111.904 3.942 112.112 3.76C112.32 3.578 112.585 3.42633 112.905 3.305C113.235 3.175 113.633 3.11 114.101 3.11C114.621 3.11 115.059 3.17933 115.414 3.318C115.77 3.448 116.047 3.62567 116.246 3.851C116.454 4.07633 116.602 4.332 116.688 4.618C116.784 4.904 116.831 5.19433 116.831 5.489V9.701C116.831 9.78767 116.801 9.86133 116.74 9.922C116.688 9.974 116.619 10 116.532 10H115.934C115.839 10 115.765 9.974 115.713 9.922C115.661 9.86133 115.635 9.78767 115.635 9.701V9.142C115.523 9.298 115.371 9.454 115.18 9.61C114.99 9.75733 114.751 9.883 114.465 9.987C114.179 10.0823 113.828 10.13 113.412 10.13ZM113.685 9.155C114.041 9.155 114.366 9.08133 114.66 8.934C114.955 8.778 115.185 8.53967 115.349 8.219C115.523 7.89833 115.609 7.49533 115.609 7.01V6.646L114.101 6.867C113.486 6.95367 113.022 7.101 112.71 7.309C112.398 7.50833 112.242 7.764 112.242 8.076C112.242 8.31867 112.312 8.52233 112.45 8.687C112.598 8.843 112.78 8.96 112.996 9.038C113.222 9.116 113.451 9.155 113.685 9.155ZM121.391 12.86C120.802 12.86 120.316 12.782 119.935 12.626C119.562 12.47 119.268 12.2793 119.051 12.054C118.843 11.8373 118.691 11.6163 118.596 11.391C118.509 11.1743 118.462 11.001 118.453 10.871C118.444 10.7843 118.47 10.7107 118.531 10.65C118.6 10.5893 118.674 10.559 118.752 10.559H119.376C119.454 10.559 119.519 10.5763 119.571 10.611C119.623 10.6457 119.666 10.7193 119.701 10.832C119.753 10.962 119.831 11.105 119.935 11.261C120.039 11.4257 120.199 11.5643 120.416 11.677C120.633 11.7983 120.936 11.859 121.326 11.859C121.733 11.859 122.076 11.8027 122.353 11.69C122.63 11.5773 122.838 11.3867 122.977 11.118C123.124 10.8493 123.198 10.4767 123.198 10V9.116C122.99 9.38467 122.717 9.61 122.379 9.792C122.041 9.96533 121.616 10.052 121.105 10.052C120.62 10.052 120.204 9.96967 119.857 9.805C119.51 9.63167 119.224 9.402 118.999 9.116C118.782 8.82133 118.618 8.48767 118.505 8.115C118.401 7.74233 118.34 7.35233 118.323 6.945C118.314 6.70233 118.314 6.464 118.323 6.23C118.34 5.82267 118.401 5.43267 118.505 5.06C118.618 4.68733 118.782 4.35367 118.999 4.059C119.224 3.76433 119.51 3.53467 119.857 3.37C120.204 3.19667 120.62 3.11 121.105 3.11C121.625 3.11 122.054 3.20533 122.392 3.396C122.739 3.58667 123.02 3.825 123.237 4.111V3.552C123.237 3.46533 123.263 3.39167 123.315 3.331C123.376 3.27033 123.449 3.24 123.536 3.24H124.134C124.221 3.24 124.294 3.27033 124.355 3.331C124.416 3.39167 124.446 3.46533 124.446 3.552V9.857C124.446 10.4377 124.346 10.9533 124.147 11.404C123.956 11.8547 123.636 12.21 123.185 12.47C122.743 12.73 122.145 12.86 121.391 12.86ZM121.365 9.012C121.798 9.012 122.145 8.91233 122.405 8.713C122.674 8.51367 122.869 8.26233 122.99 7.959C123.12 7.65567 123.189 7.348 123.198 7.036C123.207 6.91467 123.211 6.76733 123.211 6.594C123.211 6.412 123.207 6.26033 123.198 6.139C123.189 5.827 123.12 5.51933 122.99 5.216C122.869 4.91267 122.674 4.66133 122.405 4.462C122.145 4.26267 121.798 4.163 121.365 4.163C120.932 4.163 120.585 4.26267 120.325 4.462C120.065 4.65267 119.879 4.90833 119.766 5.229C119.653 5.541 119.588 5.879 119.571 6.243C119.562 6.46833 119.562 6.698 119.571 6.932C119.588 7.296 119.653 7.63833 119.766 7.959C119.879 8.271 120.065 8.52667 120.325 8.726C120.585 8.91667 120.932 9.012 121.365 9.012ZM126.6 10C126.513 10 126.44 9.974 126.379 9.922C126.327 9.86133 126.301 9.78767 126.301 9.701V3.552C126.301 3.46533 126.327 3.39167 126.379 3.331C126.44 3.27033 126.513 3.24 126.6 3.24H127.198C127.285 3.24 127.358 3.27033 127.419 3.331C127.48 3.39167 127.51 3.46533 127.51 3.552V4.124C127.683 3.82933 127.922 3.60833 128.225 3.461C128.528 3.31367 128.897 3.24 129.33 3.24H129.837C129.924 3.24 129.993 3.27033 130.045 3.331C130.106 3.383 130.136 3.45233 130.136 3.539V4.072C130.136 4.15867 130.106 4.228 130.045 4.28C129.993 4.332 129.924 4.358 129.837 4.358H129.057C128.589 4.358 128.221 4.49667 127.952 4.774C127.683 5.04267 127.549 5.411 127.549 5.879V9.701C127.549 9.78767 127.519 9.86133 127.458 9.922C127.397 9.974 127.324 10 127.237 10H126.6ZM133.739 10.13C132.837 10.13 132.122 9.857 131.594 9.311C131.065 8.75633 130.775 8.00233 130.723 7.049C130.714 6.93633 130.71 6.79333 130.71 6.62C130.71 6.438 130.714 6.29067 130.723 6.178C130.757 5.56267 130.9 5.02533 131.152 4.566C131.403 4.098 131.745 3.73833 132.179 3.487C132.621 3.23567 133.136 3.11 133.726 3.11C134.384 3.11 134.935 3.24867 135.377 3.526C135.827 3.80333 136.17 4.19767 136.404 4.709C136.638 5.22033 136.755 5.81833 136.755 6.503V6.724C136.755 6.81933 136.724 6.893 136.664 6.945C136.612 6.997 136.542 7.023 136.456 7.023H131.958C131.958 7.03167 131.958 7.049 131.958 7.075C131.958 7.101 131.958 7.12267 131.958 7.14C131.975 7.49533 132.053 7.829 132.192 8.141C132.33 8.44433 132.53 8.69133 132.79 8.882C133.058 9.07267 133.37 9.168 133.726 9.168C134.038 9.168 134.298 9.12033 134.506 9.025C134.714 8.92967 134.883 8.82567 135.013 8.713C135.143 8.59167 135.229 8.49633 135.273 8.427C135.351 8.323 135.411 8.26233 135.455 8.245C135.498 8.219 135.567 8.206 135.663 8.206H136.3C136.378 8.206 136.443 8.232 136.495 8.284C136.555 8.32733 136.581 8.39233 136.573 8.479C136.564 8.609 136.495 8.76933 136.365 8.96C136.235 9.142 136.048 9.324 135.806 9.506C135.572 9.688 135.277 9.83967 134.922 9.961C134.575 10.0737 134.181 10.13 133.739 10.13ZM131.958 6.126H135.52V6.087C135.52 5.697 135.446 5.35033 135.299 5.047C135.16 4.74367 134.956 4.50533 134.688 4.332C134.419 4.15 134.098 4.059 133.726 4.059C133.353 4.059 133.032 4.15 132.764 4.332C132.504 4.50533 132.304 4.74367 132.166 5.047C132.027 5.35033 131.958 5.697 131.958 6.087V6.126ZM140.935 10.13C140.034 10.13 139.319 9.857 138.79 9.311C138.261 8.75633 137.971 8.00233 137.919 7.049C137.91 6.93633 137.906 6.79333 137.906 6.62C137.906 6.438 137.91 6.29067 137.919 6.178C137.954 5.56267 138.097 5.02533 138.348 4.566C138.599 4.098 138.942 3.73833 139.375 3.487C139.817 3.23567 140.333 3.11 140.922 3.11C141.581 3.11 142.131 3.24867 142.573 3.526C143.024 3.80333 143.366 4.19767 143.6 4.709C143.834 5.22033 143.951 5.81833 143.951 6.503V6.724C143.951 6.81933 143.921 6.893 143.86 6.945C143.808 6.997 143.739 7.023 143.652 7.023H139.154C139.154 7.03167 139.154 7.049 139.154 7.075C139.154 7.101 139.154 7.12267 139.154 7.14C139.171 7.49533 139.249 7.829 139.388 8.141C139.527 8.44433 139.726 8.69133 139.986 8.882C140.255 9.07267 140.567 9.168 140.922 9.168C141.234 9.168 141.494 9.12033 141.702 9.025C141.91 8.92967 142.079 8.82567 142.209 8.713C142.339 8.59167 142.426 8.49633 142.469 8.427C142.547 8.323 142.608 8.26233 142.651 8.245C142.694 8.219 142.764 8.206 142.859 8.206H143.496C143.574 8.206 143.639 8.232 143.691 8.284C143.752 8.32733 143.778 8.39233 143.769 8.479C143.76 8.609 143.691 8.76933 143.561 8.96C143.431 9.142 143.245 9.324 143.002 9.506C142.768 9.688 142.473 9.83967 142.118 9.961C141.771 10.0737 141.377 10.13 140.935 10.13ZM139.154 6.126H142.716V6.087C142.716 5.697 142.642 5.35033 142.495 5.047C142.356 4.74367 142.153 4.50533 141.884 4.332C141.615 4.15 141.295 4.059 140.922 4.059C140.549 4.059 140.229 4.15 139.96 4.332C139.7 4.50533 139.501 4.74367 139.362 5.047C139.223 5.35033 139.154 5.697 139.154 6.087V6.126ZM150.993 10C150.906 10 150.833 9.974 150.772 9.922C150.72 9.86133 150.694 9.78767 150.694 9.701V2.057H148.198C148.111 2.057 148.038 2.031 147.977 1.979C147.925 1.91833 147.899 1.84467 147.899 1.758V1.212C147.899 1.11667 147.925 1.043 147.977 0.991C148.038 0.930333 148.111 0.899999 148.198 0.899999H154.464C154.559 0.899999 154.633 0.930333 154.685 0.991C154.746 1.043 154.776 1.11667 154.776 1.212V1.758C154.776 1.84467 154.746 1.91833 154.685 1.979C154.633 2.031 154.559 2.057 154.464 2.057H151.981V9.701C151.981 9.78767 151.951 9.86133 151.89 9.922C151.838 9.974 151.764 10 151.669 10H150.993ZM157.446 10.13C156.545 10.13 155.83 9.857 155.301 9.311C154.772 8.75633 154.482 8.00233 154.43 7.049C154.421 6.93633 154.417 6.79333 154.417 6.62C154.417 6.438 154.421 6.29067 154.43 6.178C154.465 5.56267 154.608 5.02533 154.859 4.566C155.11 4.098 155.453 3.73833 155.886 3.487C156.328 3.23567 156.844 3.11 157.433 3.11C158.092 3.11 158.642 3.24867 159.084 3.526C159.535 3.80333 159.877 4.19767 160.111 4.709C160.345 5.22033 160.462 5.81833 160.462 6.503V6.724C160.462 6.81933 160.432 6.893 160.371 6.945C160.319 6.997 160.25 7.023 160.163 7.023H155.665C155.665 7.03167 155.665 7.049 155.665 7.075C155.665 7.101 155.665 7.12267 155.665 7.14C155.682 7.49533 155.76 7.829 155.899 8.141C156.038 8.44433 156.237 8.69133 156.497 8.882C156.766 9.07267 157.078 9.168 157.433 9.168C157.745 9.168 158.005 9.12033 158.213 9.025C158.421 8.92967 158.59 8.82567 158.72 8.713C158.85 8.59167 158.937 8.49633 158.98 8.427C159.058 8.323 159.119 8.26233 159.162 8.245C159.205 8.219 159.275 8.206 159.37 8.206H160.007C160.085 8.206 160.15 8.232 160.202 8.284C160.263 8.32733 160.289 8.39233 160.28 8.479C160.271 8.609 160.202 8.76933 160.072 8.96C159.942 9.142 159.756 9.324 159.513 9.506C159.279 9.688 158.984 9.83967 158.629 9.961C158.282 10.0737 157.888 10.13 157.446 10.13ZM155.665 6.126H159.227V6.087C159.227 5.697 159.153 5.35033 159.006 5.047C158.867 4.74367 158.664 4.50533 158.395 4.332C158.126 4.15 157.806 4.059 157.433 4.059C157.06 4.059 156.74 4.15 156.471 4.332C156.211 4.50533 156.012 4.74367 155.873 5.047C155.734 5.35033 155.665 5.697 155.665 6.087V6.126ZM162.237 10C162.151 10 162.077 9.974 162.016 9.922C161.964 9.86133 161.938 9.78767 161.938 9.701V3.552C161.938 3.46533 161.964 3.39167 162.016 3.331C162.077 3.27033 162.151 3.24 162.237 3.24H162.835C162.922 3.24 162.996 3.27033 163.056 3.331C163.117 3.39167 163.147 3.46533 163.147 3.552V4.124C163.321 3.82933 163.559 3.60833 163.862 3.461C164.166 3.31367 164.534 3.24 164.967 3.24H165.474C165.561 3.24 165.63 3.27033 165.682 3.331C165.743 3.383 165.773 3.45233 165.773 3.539V4.072C165.773 4.15867 165.743 4.228 165.682 4.28C165.63 4.332 165.561 4.358 165.474 4.358H164.694C164.226 4.358 163.858 4.49667 163.589 4.774C163.321 5.04267 163.186 5.411 163.186 5.879V9.701C163.186 9.78767 163.156 9.86133 163.095 9.922C163.035 9.974 162.961 10 162.874 10H162.237ZM167.098 10C167.011 10 166.938 9.974 166.877 9.922C166.825 9.86133 166.799 9.78767 166.799 9.701V3.539C166.799 3.45233 166.825 3.383 166.877 3.331C166.938 3.27033 167.011 3.24 167.098 3.24H167.683C167.77 3.24 167.839 3.27033 167.891 3.331C167.952 3.383 167.982 3.45233 167.982 3.539V3.994C168.181 3.72533 168.433 3.513 168.736 3.357C169.039 3.19233 169.403 3.11 169.828 3.11C170.807 3.10133 171.501 3.5 171.908 4.306C172.107 3.942 172.398 3.65167 172.779 3.435C173.16 3.21833 173.594 3.11 174.079 3.11C174.53 3.11 174.937 3.214 175.301 3.422C175.674 3.63 175.964 3.94633 176.172 4.371C176.389 4.787 176.497 5.31133 176.497 5.944V9.701C176.497 9.78767 176.467 9.86133 176.406 9.922C176.354 9.974 176.285 10 176.198 10H175.587C175.5 10 175.427 9.974 175.366 9.922C175.314 9.86133 175.288 9.78767 175.288 9.701V6.061C175.288 5.57567 175.219 5.19433 175.08 4.917C174.941 4.63967 174.755 4.44467 174.521 4.332C174.287 4.21933 174.031 4.163 173.754 4.163C173.529 4.163 173.299 4.21933 173.065 4.332C172.831 4.44467 172.636 4.63967 172.48 4.917C172.333 5.19433 172.259 5.57567 172.259 6.061V9.701C172.259 9.78767 172.229 9.86133 172.168 9.922C172.116 9.974 172.047 10 171.96 10H171.349C171.262 10 171.189 9.974 171.128 9.922C171.076 9.86133 171.05 9.78767 171.05 9.701V6.061C171.05 5.57567 170.976 5.19433 170.829 4.917C170.682 4.63967 170.491 4.44467 170.257 4.332C170.023 4.21933 169.776 4.163 169.516 4.163C169.291 4.163 169.061 4.21933 168.827 4.332C168.593 4.44467 168.398 4.63967 168.242 4.917C168.095 5.19433 168.021 5.57133 168.021 6.048V9.701C168.021 9.78767 167.991 9.86133 167.93 9.922C167.878 9.974 167.809 10 167.722 10H167.098ZM180.614 10.13C180.128 10.13 179.712 10.0693 179.366 9.948C179.019 9.82667 178.737 9.67933 178.521 9.506C178.304 9.33267 178.139 9.15933 178.027 8.986C177.923 8.81267 177.866 8.674 177.858 8.57C177.849 8.47467 177.879 8.401 177.949 8.349C178.018 8.297 178.087 8.271 178.157 8.271H178.742C178.785 8.271 178.82 8.27967 178.846 8.297C178.88 8.30567 178.924 8.34033 178.976 8.401C179.088 8.52233 179.214 8.64367 179.353 8.765C179.491 8.88633 179.66 8.986 179.86 9.064C180.068 9.142 180.323 9.181 180.627 9.181C181.069 9.181 181.433 9.09867 181.719 8.934C182.005 8.76067 182.148 8.50933 182.148 8.18C182.148 7.96333 182.087 7.79 181.966 7.66C181.853 7.53 181.645 7.413 181.342 7.309C181.047 7.205 180.64 7.09667 180.12 6.984C179.6 6.86267 179.188 6.71533 178.885 6.542C178.581 6.36 178.365 6.14767 178.235 5.905C178.105 5.65367 178.04 5.372 178.04 5.06C178.04 4.73933 178.135 4.43167 178.326 4.137C178.516 3.83367 178.794 3.58667 179.158 3.396C179.53 3.20533 179.994 3.11 180.549 3.11C180.999 3.11 181.385 3.16633 181.706 3.279C182.026 3.39167 182.291 3.53467 182.499 3.708C182.707 3.87267 182.863 4.03733 182.967 4.202C183.071 4.36667 183.127 4.50533 183.136 4.618C183.144 4.70467 183.118 4.77833 183.058 4.839C182.997 4.891 182.928 4.917 182.85 4.917H182.304C182.243 4.917 182.191 4.904 182.148 4.878C182.113 4.852 182.078 4.82167 182.044 4.787C181.957 4.67433 181.853 4.56167 181.732 4.449C181.619 4.33633 181.467 4.24533 181.277 4.176C181.095 4.098 180.852 4.059 180.549 4.059C180.115 4.059 179.79 4.15 179.574 4.332C179.357 4.514 179.249 4.74367 179.249 5.021C179.249 5.18567 179.296 5.333 179.392 5.463C179.487 5.593 179.669 5.71 179.938 5.814C180.206 5.918 180.605 6.03067 181.134 6.152C181.706 6.26467 182.156 6.41633 182.486 6.607C182.815 6.79767 183.049 7.01867 183.188 7.27C183.326 7.52133 183.396 7.81167 183.396 8.141C183.396 8.505 183.292 8.83867 183.084 9.142C182.876 9.44533 182.564 9.688 182.148 9.87C181.732 10.0433 181.22 10.13 180.614 10.13ZM191.376 10.13C190.631 10.13 189.994 10.0043 189.465 9.753C188.936 9.493 188.529 9.09867 188.243 8.57C187.957 8.03267 187.797 7.361 187.762 6.555C187.753 6.17367 187.749 5.80967 187.749 5.463C187.749 5.10767 187.753 4.73933 187.762 4.358C187.797 3.56067 187.961 2.89767 188.256 2.369C188.559 1.83167 188.975 1.433 189.504 1.173C190.041 0.904333 190.665 0.77 191.376 0.77C192.078 0.77 192.693 0.904333 193.222 1.173C193.759 1.433 194.18 1.83167 194.483 2.369C194.786 2.89767 194.951 3.56067 194.977 4.358C194.994 4.73933 195.003 5.10767 195.003 5.463C195.003 5.80967 194.994 6.17367 194.977 6.555C194.951 7.361 194.791 8.03267 194.496 8.57C194.21 9.09867 193.803 9.493 193.274 9.753C192.745 10.0043 192.113 10.13 191.376 10.13ZM191.376 9.025C192.035 9.025 192.572 8.82567 192.988 8.427C193.413 8.02833 193.642 7.38267 193.677 6.49C193.694 6.1 193.703 5.75333 193.703 5.45C193.703 5.138 193.694 4.79133 193.677 4.41C193.66 3.812 193.547 3.32667 193.339 2.954C193.14 2.58133 192.871 2.30833 192.533 2.135C192.195 1.96167 191.809 1.875 191.376 1.875C190.943 1.875 190.557 1.96167 190.219 2.135C189.881 2.30833 189.608 2.58133 189.4 2.954C189.201 3.32667 189.088 3.812 189.062 4.41C189.053 4.79133 189.049 5.138 189.049 5.45C189.049 5.75333 189.053 6.1 189.062 6.49C189.097 7.38267 189.326 8.02833 189.751 8.427C190.176 8.82567 190.717 9.025 191.376 9.025ZM197.626 10C197.539 10 197.466 9.974 197.405 9.922C197.353 9.86133 197.327 9.78767 197.327 9.701V4.28H196.222C196.135 4.28 196.062 4.254 196.001 4.202C195.949 4.14133 195.923 4.06767 195.923 3.981V3.539C195.923 3.45233 195.949 3.383 196.001 3.331C196.062 3.27033 196.135 3.24 196.222 3.24H197.327V2.59C197.327 2.148 197.401 1.76233 197.548 1.433C197.695 1.095 197.929 0.835 198.25 0.652999C198.579 0.471 199.017 0.38 199.563 0.38H200.343C200.43 0.38 200.499 0.410333 200.551 0.470999C200.612 0.522999 200.642 0.592333 200.642 0.679V1.121C200.642 1.20767 200.612 1.28133 200.551 1.342C200.499 1.394 200.43 1.42 200.343 1.42H199.589C199.182 1.42 198.904 1.52833 198.757 1.745C198.61 1.953 198.536 2.25633 198.536 2.655V3.24H200.213C200.3 3.24 200.369 3.27033 200.421 3.331C200.482 3.383 200.512 3.45233 200.512 3.539V3.981C200.512 4.06767 200.482 4.14133 200.421 4.202C200.369 4.254 200.3 4.28 200.213 4.28H198.536V9.701C198.536 9.78767 198.506 9.86133 198.445 9.922C198.393 9.974 198.324 10 198.237 10H197.626ZM207.485 10.13C206.731 10.13 206.099 10.013 205.587 9.779C205.076 9.545 204.682 9.246 204.404 8.882C204.136 8.50933 203.993 8.11933 203.975 7.712C203.975 7.64267 204.001 7.582 204.053 7.53C204.114 7.46933 204.183 7.439 204.261 7.439H204.924C205.028 7.439 205.106 7.465 205.158 7.517C205.21 7.569 205.245 7.62967 205.262 7.699C205.314 7.907 205.423 8.115 205.587 8.323C205.752 8.52233 205.986 8.69133 206.289 8.83C206.601 8.96 207 9.025 207.485 9.025C208.231 9.025 208.777 8.895 209.123 8.635C209.479 8.36633 209.656 8.011 209.656 7.569C209.656 7.26567 209.561 7.023 209.37 6.841C209.188 6.65033 208.907 6.48133 208.525 6.334C208.144 6.18667 207.65 6.02633 207.043 5.853C206.411 5.671 205.886 5.47167 205.47 5.255C205.054 5.03833 204.742 4.76967 204.534 4.449C204.335 4.12833 204.235 3.721 204.235 3.227C204.235 2.759 204.361 2.343 204.612 1.979C204.864 1.60633 205.228 1.31167 205.704 1.095C206.181 0.878333 206.753 0.77 207.42 0.77C207.958 0.77 208.426 0.843666 208.824 0.991C209.232 1.12967 209.57 1.32033 209.838 1.563C210.107 1.797 210.311 2.05267 210.449 2.33C210.588 2.59867 210.662 2.863 210.67 3.123C210.67 3.18367 210.649 3.24433 210.605 3.305C210.562 3.357 210.493 3.383 210.397 3.383H209.708C209.648 3.383 209.583 3.36567 209.513 3.331C209.453 3.29633 209.405 3.23133 209.37 3.136C209.318 2.78067 209.119 2.48167 208.772 2.239C208.426 1.99633 207.975 1.875 207.42 1.875C206.857 1.875 206.398 1.98333 206.042 2.2C205.696 2.41667 205.522 2.75467 205.522 3.214C205.522 3.50867 205.605 3.75567 205.769 3.955C205.934 4.14567 206.194 4.31467 206.549 4.462C206.905 4.60933 207.368 4.76533 207.94 4.93C208.634 5.12067 209.201 5.32433 209.643 5.541C210.085 5.749 210.41 6.01333 210.618 6.334C210.835 6.646 210.943 7.049 210.943 7.543C210.943 8.089 210.8 8.557 210.514 8.947C210.228 9.32833 209.825 9.623 209.305 9.831C208.794 10.0303 208.187 10.13 207.485 10.13ZM215.104 10.13C214.203 10.13 213.488 9.857 212.959 9.311C212.431 8.75633 212.14 8.00233 212.088 7.049C212.08 6.93633 212.075 6.79333 212.075 6.62C212.075 6.438 212.08 6.29067 212.088 6.178C212.123 5.56267 212.266 5.02533 212.517 4.566C212.769 4.098 213.111 3.73833 213.544 3.487C213.986 3.23567 214.502 3.11 215.091 3.11C215.75 3.11 216.3 3.24867 216.742 3.526C217.193 3.80333 217.535 4.19767 217.769 4.709C218.003 5.22033 218.12 5.81833 218.12 6.503V6.724C218.12 6.81933 218.09 6.893 218.029 6.945C217.977 6.997 217.908 7.023 217.821 7.023H213.323C213.323 7.03167 213.323 7.049 213.323 7.075C213.323 7.101 213.323 7.12267 213.323 7.14C213.341 7.49533 213.419 7.829 213.557 8.141C213.696 8.44433 213.895 8.69133 214.155 8.882C214.424 9.07267 214.736 9.168 215.091 9.168C215.403 9.168 215.663 9.12033 215.871 9.025C216.079 8.92967 216.248 8.82567 216.378 8.713C216.508 8.59167 216.595 8.49633 216.638 8.427C216.716 8.323 216.777 8.26233 216.82 8.245C216.864 8.219 216.933 8.206 217.028 8.206H217.665C217.743 8.206 217.808 8.232 217.86 8.284C217.921 8.32733 217.947 8.39233 217.938 8.479C217.93 8.609 217.86 8.76933 217.73 8.96C217.6 9.142 217.414 9.324 217.171 9.506C216.937 9.688 216.643 9.83967 216.287 9.961C215.941 10.0737 215.546 10.13 215.104 10.13ZM213.323 6.126H216.885V6.087C216.885 5.697 216.812 5.35033 216.664 5.047C216.526 4.74367 216.322 4.50533 216.053 4.332C215.785 4.15 215.464 4.059 215.091 4.059C214.719 4.059 214.398 4.15 214.129 4.332C213.869 4.50533 213.67 4.74367 213.531 5.047C213.393 5.35033 213.323 5.697 213.323 6.087V6.126ZM219.896 10C219.809 10 219.735 9.974 219.675 9.922C219.623 9.86133 219.597 9.78767 219.597 9.701V3.552C219.597 3.46533 219.623 3.39167 219.675 3.331C219.735 3.27033 219.809 3.24 219.896 3.24H220.494C220.58 3.24 220.654 3.27033 220.715 3.331C220.775 3.39167 220.806 3.46533 220.806 3.552V4.124C220.979 3.82933 221.217 3.60833 221.521 3.461C221.824 3.31367 222.192 3.24 222.626 3.24H223.133C223.219 3.24 223.289 3.27033 223.341 3.331C223.401 3.383 223.432 3.45233 223.432 3.539V4.072C223.432 4.15867 223.401 4.228 223.341 4.28C223.289 4.332 223.219 4.358 223.133 4.358H222.353C221.885 4.358 221.516 4.49667 221.248 4.774C220.979 5.04267 220.845 5.411 220.845 5.879V9.701C220.845 9.78767 220.814 9.86133 220.754 9.922C220.693 9.974 220.619 10 220.533 10H219.896ZM226.81 10C226.68 10 226.576 9.96967 226.498 9.909C226.429 9.84833 226.373 9.77033 226.329 9.675L223.924 3.643C223.907 3.59967 223.898 3.55633 223.898 3.513C223.898 3.435 223.924 3.37 223.976 3.318C224.028 3.266 224.093 3.24 224.171 3.24H224.795C224.891 3.24 224.964 3.266 225.016 3.318C225.068 3.37 225.103 3.41767 225.12 3.461L227.096 8.583L229.072 3.461C229.09 3.41767 229.12 3.37 229.163 3.318C229.215 3.266 229.289 3.24 229.384 3.24H230.021C230.091 3.24 230.151 3.266 230.203 3.318C230.264 3.37 230.294 3.435 230.294 3.513C230.294 3.55633 230.286 3.59967 230.268 3.643L227.85 9.675C227.816 9.77033 227.759 9.84833 227.681 9.909C227.612 9.96967 227.508 10 227.369 10H226.81ZM231.877 10C231.79 10 231.716 9.974 231.656 9.922C231.604 9.86133 231.578 9.78767 231.578 9.701V3.539C231.578 3.45233 231.604 3.383 231.656 3.331C231.716 3.27033 231.79 3.24 231.877 3.24H232.501C232.587 3.24 232.657 3.27033 232.709 3.331C232.769 3.383 232.8 3.45233 232.8 3.539V9.701C232.8 9.78767 232.769 9.86133 232.709 9.922C232.657 9.974 232.587 10 232.501 10H231.877ZM231.773 1.979C231.686 1.979 231.612 1.953 231.552 1.901C231.5 1.84033 231.474 1.76667 231.474 1.68V0.978C231.474 0.891333 231.5 0.817666 231.552 0.757C231.612 0.696333 231.686 0.665999 231.773 0.665999H232.592C232.678 0.665999 232.752 0.696333 232.813 0.757C232.873 0.817666 232.904 0.891333 232.904 0.978V1.68C232.904 1.76667 232.873 1.84033 232.813 1.901C232.752 1.953 232.678 1.979 232.592 1.979H231.773ZM237.403 10.13C236.788 10.13 236.255 10.013 235.804 9.779C235.362 9.53633 235.02 9.194 234.777 8.752C234.535 8.30133 234.405 7.764 234.387 7.14C234.379 7.01 234.374 6.83667 234.374 6.62C234.374 6.40333 234.379 6.23 234.387 6.1C234.405 5.476 234.535 4.943 234.777 4.501C235.02 4.05033 235.362 3.708 235.804 3.474C236.255 3.23133 236.788 3.11 237.403 3.11C237.906 3.11 238.335 3.17933 238.69 3.318C239.054 3.45667 239.353 3.63433 239.587 3.851C239.821 4.06767 239.995 4.30167 240.107 4.553C240.229 4.80433 240.294 5.04267 240.302 5.268C240.311 5.35467 240.285 5.424 240.224 5.476C240.164 5.528 240.09 5.554 240.003 5.554H239.379C239.293 5.554 239.228 5.53667 239.184 5.502C239.141 5.45867 239.098 5.38933 239.054 5.294C238.898 4.86933 238.686 4.57033 238.417 4.397C238.149 4.22367 237.815 4.137 237.416 4.137C236.896 4.137 236.472 4.29733 236.142 4.618C235.822 4.93867 235.648 5.45433 235.622 6.165C235.614 6.477 235.614 6.78033 235.622 7.075C235.648 7.79433 235.822 8.31433 236.142 8.635C236.472 8.947 236.896 9.103 237.416 9.103C237.815 9.103 238.149 9.01633 238.417 8.843C238.686 8.66967 238.898 8.37067 239.054 7.946C239.098 7.85067 239.141 7.78133 239.184 7.738C239.228 7.69467 239.293 7.673 239.379 7.673H240.003C240.09 7.673 240.164 7.70333 240.224 7.764C240.285 7.816 240.311 7.88533 240.302 7.972C240.294 8.154 240.255 8.34033 240.185 8.531C240.116 8.72167 240.003 8.91667 239.847 9.116C239.7 9.30667 239.514 9.48 239.288 9.636C239.063 9.78333 238.794 9.90467 238.482 10C238.17 10.0867 237.811 10.13 237.403 10.13ZM244.472 10.13C243.571 10.13 242.856 9.857 242.327 9.311C241.799 8.75633 241.508 8.00233 241.456 7.049C241.448 6.93633 241.443 6.79333 241.443 6.62C241.443 6.438 241.448 6.29067 241.456 6.178C241.491 5.56267 241.634 5.02533 241.885 4.566C242.137 4.098 242.479 3.73833 242.912 3.487C243.354 3.23567 243.87 3.11 244.459 3.11C245.118 3.11 245.668 3.24867 246.11 3.526C246.561 3.80333 246.903 4.19767 247.137 4.709C247.371 5.22033 247.488 5.81833 247.488 6.503V6.724C247.488 6.81933 247.458 6.893 247.397 6.945C247.345 6.997 247.276 7.023 247.189 7.023H242.691C242.691 7.03167 242.691 7.049 242.691 7.075C242.691 7.101 242.691 7.12267 242.691 7.14C242.709 7.49533 242.787 7.829 242.925 8.141C243.064 8.44433 243.263 8.69133 243.523 8.882C243.792 9.07267 244.104 9.168 244.459 9.168C244.771 9.168 245.031 9.12033 245.239 9.025C245.447 8.92967 245.616 8.82567 245.746 8.713C245.876 8.59167 245.963 8.49633 246.006 8.427C246.084 8.323 246.145 8.26233 246.188 8.245C246.232 8.219 246.301 8.206 246.396 8.206H247.033C247.111 8.206 247.176 8.232 247.228 8.284C247.289 8.32733 247.315 8.39233 247.306 8.479C247.298 8.609 247.228 8.76933 247.098 8.96C246.968 9.142 246.782 9.324 246.539 9.506C246.305 9.688 246.011 9.83967 245.655 9.961C245.309 10.0737 244.914 10.13 244.472 10.13ZM242.691 6.126H246.253V6.087C246.253 5.697 246.18 5.35033 246.032 5.047C245.894 4.74367 245.69 4.50533 245.421 4.332C245.153 4.15 244.832 4.059 244.459 4.059C244.087 4.059 243.766 4.15 243.497 4.332C243.237 4.50533 243.038 4.74367 242.899 5.047C242.761 5.35033 242.691 5.697 242.691 6.087V6.126ZM68.9887 28C68.9193 28 68.8587 27.974 68.8067 27.922C68.7547 27.87 68.7287 27.8093 68.7287 27.74C68.7287 27.6967 68.733 27.649 68.7417 27.597L71.9657 19.186C72.0003 19.0993 72.048 19.03 72.1087 18.978C72.1693 18.926 72.2603 18.9 72.3817 18.9H73.2657C73.387 18.9 73.478 18.926 73.5387 18.978C73.5993 19.03 73.647 19.0993 73.6817 19.186L76.8927 27.597C76.91 27.649 76.9187 27.6967 76.9187 27.74C76.9187 27.8093 76.8927 27.87 76.8407 27.922C76.7887 27.974 76.728 28 76.6587 28H75.9957C75.8917 28 75.8137 27.974 75.7617 27.922C75.7183 27.87 75.688 27.8223 75.6707 27.779L74.9557 25.933H70.6917L69.9767 27.779C69.968 27.8223 69.9377 27.87 69.8857 27.922C69.8337 27.974 69.7557 28 69.6517 28H68.9887ZM71.0687 24.815H74.5787L72.8237 20.2L71.0687 24.815ZM78.3606 28C78.274 28 78.2003 27.974 78.1396 27.922C78.0876 27.8613 78.0616 27.7877 78.0616 27.701V21.539C78.0616 21.4523 78.0876 21.383 78.1396 21.331C78.2003 21.2703 78.274 21.24 78.3606 21.24H78.9716C79.0583 21.24 79.1276 21.2703 79.1796 21.331C79.2403 21.383 79.2706 21.4523 79.2706 21.539V22.111C79.496 21.8163 79.7776 21.578 80.1156 21.396C80.4623 21.2053 80.9043 21.11 81.4416 21.11C82.005 21.11 82.4816 21.2357 82.8716 21.487C83.2703 21.7297 83.5693 22.072 83.7686 22.514C83.9766 22.9473 84.0806 23.4543 84.0806 24.035V27.701C84.0806 27.7877 84.0503 27.8613 83.9896 27.922C83.9376 27.974 83.8683 28 83.7816 28H83.1316C83.045 28 82.9713 27.974 82.9106 27.922C82.8586 27.8613 82.8326 27.7877 82.8326 27.701V24.1C82.8326 23.4933 82.6853 23.021 82.3906 22.683C82.096 22.3363 81.6626 22.163 81.0906 22.163C80.5533 22.163 80.12 22.3363 79.7906 22.683C79.47 23.021 79.3096 23.4933 79.3096 24.1V27.701C79.3096 27.7877 79.2793 27.8613 79.2186 27.922C79.1666 27.974 79.0973 28 79.0106 28H78.3606ZM88.3374 28.13C87.8608 28.13 87.4491 28.0477 87.1024 27.883C86.7558 27.7097 86.4698 27.48 86.2444 27.194C86.0278 26.8993 85.8631 26.5657 85.7504 26.193C85.6464 25.8203 85.5858 25.426 85.5684 25.01C85.5598 24.8713 85.5554 24.7413 85.5554 24.62C85.5554 24.4987 85.5598 24.3687 85.5684 24.23C85.5858 23.8227 85.6464 23.4327 85.7504 23.06C85.8631 22.6873 86.0278 22.3537 86.2444 22.059C86.4698 21.7643 86.7558 21.5347 87.1024 21.37C87.4491 21.1967 87.8608 21.11 88.3374 21.11C88.8488 21.11 89.2734 21.201 89.6114 21.383C89.9494 21.565 90.2268 21.7903 90.4434 22.059V19.069C90.4434 18.9823 90.4694 18.913 90.5214 18.861C90.5821 18.8003 90.6558 18.77 90.7424 18.77H91.3664C91.4531 18.77 91.5224 18.8003 91.5744 18.861C91.6351 18.913 91.6654 18.9823 91.6654 19.069V27.701C91.6654 27.7877 91.6351 27.8613 91.5744 27.922C91.5224 27.974 91.4531 28 91.3664 28H90.7814C90.6861 28 90.6124 27.974 90.5604 27.922C90.5084 27.8613 90.4824 27.7877 90.4824 27.701V27.155C90.2658 27.4323 89.9841 27.6663 89.6374 27.857C89.2908 28.039 88.8574 28.13 88.3374 28.13ZM88.6104 27.077C89.0438 27.077 89.3904 26.9773 89.6504 26.778C89.9104 26.5787 90.1054 26.3273 90.2354 26.024C90.3654 25.712 90.4348 25.3957 90.4434 25.075C90.4521 24.9363 90.4564 24.7717 90.4564 24.581C90.4564 24.3817 90.4521 24.2127 90.4434 24.074C90.4348 23.7707 90.3611 23.4717 90.2224 23.177C90.0924 22.8823 89.8931 22.6397 89.6244 22.449C89.3644 22.2583 89.0264 22.163 88.6104 22.163C88.1684 22.163 87.8174 22.2627 87.5574 22.462C87.2974 22.6527 87.1111 22.9083 86.9984 23.229C86.8858 23.541 86.8208 23.879 86.8034 24.243C86.7948 24.4943 86.7948 24.7457 86.8034 24.997C86.8208 25.361 86.8858 25.7033 86.9984 26.024C87.1111 26.336 87.2974 26.5917 87.5574 26.791C87.8174 26.9817 88.1684 27.077 88.6104 27.077ZM97.0974 28C97.0021 28 96.9284 27.974 96.8764 27.922C96.8244 27.8613 96.7984 27.7877 96.7984 27.701V19.212C96.7984 19.1167 96.8244 19.043 96.8764 18.991C96.9284 18.9303 97.0021 18.9 97.0974 18.9H100.399C101.041 18.9 101.595 19.004 102.063 19.212C102.54 19.42 102.908 19.732 103.168 20.148C103.428 20.5553 103.558 21.0667 103.558 21.682C103.558 22.2973 103.428 22.8087 103.168 23.216C102.908 23.6233 102.54 23.931 102.063 24.139C101.595 24.347 101.041 24.451 100.399 24.451H98.0984V27.701C98.0984 27.7877 98.0681 27.8613 98.0074 27.922C97.9554 27.974 97.8817 28 97.7864 28H97.0974ZM98.0854 23.359H100.334C100.976 23.359 101.457 23.216 101.777 22.93C102.098 22.644 102.258 22.228 102.258 21.682C102.258 21.1447 102.102 20.7287 101.79 20.434C101.478 20.1393 100.993 19.992 100.334 19.992H98.0854V23.359ZM105.191 28C105.105 28 105.031 27.974 104.97 27.922C104.918 27.8613 104.892 27.7877 104.892 27.701V21.552C104.892 21.4653 104.918 21.3917 104.97 21.331C105.031 21.2703 105.105 21.24 105.191 21.24H105.789C105.876 21.24 105.95 21.2703 106.01 21.331C106.071 21.3917 106.101 21.4653 106.101 21.552V22.124C106.275 21.8293 106.513 21.6083 106.816 21.461C107.12 21.3137 107.488 21.24 107.921 21.24H108.428C108.515 21.24 108.584 21.2703 108.636 21.331C108.697 21.383 108.727 21.4523 108.727 21.539V22.072C108.727 22.1587 108.697 22.228 108.636 22.28C108.584 22.332 108.515 22.358 108.428 22.358H107.648C107.18 22.358 106.812 22.4967 106.543 22.774C106.275 23.0427 106.14 23.411 106.14 23.879V27.701C106.14 27.7877 106.11 27.8613 106.049 27.922C105.989 27.974 105.915 28 105.828 28H105.191ZM110.052 28C109.965 28 109.891 27.974 109.831 27.922C109.779 27.8613 109.753 27.7877 109.753 27.701V21.539C109.753 21.4523 109.779 21.383 109.831 21.331C109.891 21.2703 109.965 21.24 110.052 21.24H110.676C110.762 21.24 110.832 21.2703 110.884 21.331C110.944 21.383 110.975 21.4523 110.975 21.539V27.701C110.975 27.7877 110.944 27.8613 110.884 27.922C110.832 27.974 110.762 28 110.676 28H110.052ZM109.948 19.979C109.861 19.979 109.787 19.953 109.727 19.901C109.675 19.8403 109.649 19.7667 109.649 19.68V18.978C109.649 18.8913 109.675 18.8177 109.727 18.757C109.787 18.6963 109.861 18.666 109.948 18.666H110.767C110.853 18.666 110.927 18.6963 110.988 18.757C111.048 18.8177 111.079 18.8913 111.079 18.978V19.68C111.079 19.7667 111.048 19.8403 110.988 19.901C110.927 19.953 110.853 19.979 110.767 19.979H109.948ZM115.176 28C115.046 28 114.942 27.9697 114.864 27.909C114.795 27.8483 114.738 27.7703 114.695 27.675L112.29 21.643C112.273 21.5997 112.264 21.5563 112.264 21.513C112.264 21.435 112.29 21.37 112.342 21.318C112.394 21.266 112.459 21.24 112.537 21.24H113.161C113.256 21.24 113.33 21.266 113.382 21.318C113.434 21.37 113.469 21.4177 113.486 21.461L115.462 26.583L117.438 21.461C117.455 21.4177 117.486 21.37 117.529 21.318C117.581 21.266 117.655 21.24 117.75 21.24H118.387C118.456 21.24 118.517 21.266 118.569 21.318C118.63 21.37 118.66 21.435 118.66 21.513C118.66 21.5563 118.651 21.5997 118.634 21.643L116.216 27.675C116.181 27.7703 116.125 27.8483 116.047 27.909C115.978 27.9697 115.874 28 115.735 28H115.176ZM121.574 28.13C121.141 28.13 120.747 28.0433 120.391 27.87C120.036 27.6967 119.75 27.4627 119.533 27.168C119.317 26.8733 119.208 26.5397 119.208 26.167C119.208 25.569 119.451 25.0923 119.936 24.737C120.422 24.3817 121.054 24.1477 121.834 24.035L123.771 23.762V23.385C123.771 22.969 123.65 22.644 123.407 22.41C123.173 22.176 122.788 22.059 122.25 22.059C121.869 22.059 121.557 22.137 121.314 22.293C121.072 22.449 120.903 22.6483 120.807 22.891C120.755 23.021 120.664 23.086 120.534 23.086H119.949C119.854 23.086 119.78 23.06 119.728 23.008C119.685 22.9473 119.663 22.878 119.663 22.8C119.663 22.67 119.711 22.5097 119.806 22.319C119.91 22.1283 120.066 21.942 120.274 21.76C120.482 21.578 120.747 21.4263 121.067 21.305C121.397 21.175 121.795 21.11 122.263 21.11C122.783 21.11 123.221 21.1793 123.576 21.318C123.932 21.448 124.209 21.6257 124.408 21.851C124.616 22.0763 124.764 22.332 124.85 22.618C124.946 22.904 124.993 23.1943 124.993 23.489V27.701C124.993 27.7877 124.963 27.8613 124.902 27.922C124.85 27.974 124.781 28 124.694 28H124.096C124.001 28 123.927 27.974 123.875 27.922C123.823 27.8613 123.797 27.7877 123.797 27.701V27.142C123.685 27.298 123.533 27.454 123.342 27.61C123.152 27.7573 122.913 27.883 122.627 27.987C122.341 28.0823 121.99 28.13 121.574 28.13ZM121.847 27.155C122.203 27.155 122.528 27.0813 122.822 26.934C123.117 26.778 123.347 26.5397 123.511 26.219C123.685 25.8983 123.771 25.4953 123.771 25.01V24.646L122.263 24.867C121.648 24.9537 121.184 25.101 120.872 25.309C120.56 25.5083 120.404 25.764 120.404 26.076C120.404 26.3187 120.474 26.5223 120.612 26.687C120.76 26.843 120.942 26.96 121.158 27.038C121.384 27.116 121.613 27.155 121.847 27.155ZM129.514 28.13C128.899 28.13 128.366 28.013 127.915 27.779C127.473 27.5363 127.131 27.194 126.888 26.752C126.646 26.3013 126.516 25.764 126.498 25.14C126.49 25.01 126.485 24.8367 126.485 24.62C126.485 24.4033 126.49 24.23 126.498 24.1C126.516 23.476 126.646 22.943 126.888 22.501C127.131 22.0503 127.473 21.708 127.915 21.474C128.366 21.2313 128.899 21.11 129.514 21.11C130.017 21.11 130.446 21.1793 130.801 21.318C131.165 21.4567 131.464 21.6343 131.698 21.851C131.932 22.0677 132.106 22.3017 132.218 22.553C132.34 22.8043 132.405 23.0427 132.413 23.268C132.422 23.3547 132.396 23.424 132.335 23.476C132.275 23.528 132.201 23.554 132.114 23.554H131.49C131.404 23.554 131.339 23.5367 131.295 23.502C131.252 23.4587 131.209 23.3893 131.165 23.294C131.009 22.8693 130.797 22.5703 130.528 22.397C130.26 22.2237 129.926 22.137 129.527 22.137C129.007 22.137 128.583 22.2973 128.253 22.618C127.933 22.9387 127.759 23.4543 127.733 24.165C127.725 24.477 127.725 24.7803 127.733 25.075C127.759 25.7943 127.933 26.3143 128.253 26.635C128.583 26.947 129.007 27.103 129.527 27.103C129.926 27.103 130.26 27.0163 130.528 26.843C130.797 26.6697 131.009 26.3707 131.165 25.946C131.209 25.8507 131.252 25.7813 131.295 25.738C131.339 25.6947 131.404 25.673 131.49 25.673H132.114C132.201 25.673 132.275 25.7033 132.335 25.764C132.396 25.816 132.422 25.8853 132.413 25.972C132.405 26.154 132.366 26.3403 132.296 26.531C132.227 26.7217 132.114 26.9167 131.958 27.116C131.811 27.3067 131.625 27.48 131.399 27.636C131.174 27.7833 130.905 27.9047 130.593 28C130.281 28.0867 129.922 28.13 129.514 28.13ZM134.872 30.47C134.802 30.47 134.742 30.444 134.69 30.392C134.638 30.34 134.612 30.2793 134.612 30.21C134.612 30.1753 134.616 30.1407 134.625 30.106C134.633 30.0713 134.651 30.028 134.677 29.976L135.678 27.597L133.195 21.734C133.151 21.63 133.13 21.5563 133.13 21.513C133.13 21.435 133.156 21.37 133.208 21.318C133.26 21.266 133.325 21.24 133.403 21.24H134.04C134.135 21.24 134.204 21.2617 134.248 21.305C134.3 21.3483 134.334 21.4003 134.352 21.461L136.328 26.193L138.356 21.461C138.382 21.4003 138.416 21.3483 138.46 21.305C138.512 21.2617 138.585 21.24 138.681 21.24H139.292C139.37 21.24 139.435 21.266 139.487 21.318C139.539 21.37 139.565 21.4307 139.565 21.5C139.565 21.5433 139.543 21.6213 139.5 21.734L135.808 30.249C135.782 30.3097 135.743 30.3617 135.691 30.405C135.647 30.4483 135.578 30.47 135.483 30.47H134.872ZM144.017 28C143.922 28 143.848 27.974 143.796 27.922C143.744 27.8613 143.718 27.7877 143.718 27.701V19.212C143.718 19.1167 143.744 19.043 143.796 18.991C143.848 18.9303 143.922 18.9 144.017 18.9H147.319C147.961 18.9 148.515 19.004 148.983 19.212C149.46 19.42 149.828 19.732 150.088 20.148C150.348 20.5553 150.478 21.0667 150.478 21.682C150.478 22.2973 150.348 22.8087 150.088 23.216C149.828 23.6233 149.46 23.931 148.983 24.139C148.515 24.347 147.961 24.451 147.319 24.451H145.018V27.701C145.018 27.7877 144.988 27.8613 144.927 27.922C144.875 27.974 144.802 28 144.706 28H144.017ZM145.005 23.359H147.254C147.896 23.359 148.377 23.216 148.697 22.93C149.018 22.644 149.178 22.228 149.178 21.682C149.178 21.1447 149.022 20.7287 148.71 20.434C148.398 20.1393 147.913 19.992 147.254 19.992H145.005V23.359ZM154.492 28.13C153.834 28.13 153.283 28.0043 152.841 27.753C152.399 27.5017 152.061 27.155 151.827 26.713C151.593 26.2623 151.463 25.751 151.437 25.179C151.429 25.0317 151.424 24.8453 151.424 24.62C151.424 24.386 151.429 24.1997 151.437 24.061C151.463 23.4803 151.593 22.969 151.827 22.527C152.07 22.085 152.412 21.7383 152.854 21.487C153.296 21.2357 153.842 21.11 154.492 21.11C155.142 21.11 155.688 21.2357 156.13 21.487C156.572 21.7383 156.91 22.085 157.144 22.527C157.387 22.969 157.521 23.4803 157.547 24.061C157.556 24.1997 157.56 24.386 157.56 24.62C157.56 24.8453 157.556 25.0317 157.547 25.179C157.521 25.751 157.391 26.2623 157.157 26.713C156.923 27.155 156.585 27.5017 156.143 27.753C155.701 28.0043 155.151 28.13 154.492 28.13ZM154.492 27.129C155.03 27.129 155.459 26.96 155.779 26.622C156.1 26.2753 156.273 25.7727 156.299 25.114C156.308 24.984 156.312 24.8193 156.312 24.62C156.312 24.4207 156.308 24.256 156.299 24.126C156.273 23.4673 156.1 22.969 155.779 22.631C155.459 22.2843 155.03 22.111 154.492 22.111C153.955 22.111 153.522 22.2843 153.192 22.631C152.872 22.969 152.703 23.4673 152.685 24.126C152.677 24.256 152.672 24.4207 152.672 24.62C152.672 24.8193 152.677 24.984 152.685 25.114C152.703 25.7727 152.872 26.2753 153.192 26.622C153.522 26.96 153.955 27.129 154.492 27.129ZM159.422 28C159.335 28 159.262 27.974 159.201 27.922C159.149 27.8613 159.123 27.7877 159.123 27.701V19.069C159.123 18.9823 159.149 18.913 159.201 18.861C159.262 18.8003 159.335 18.77 159.422 18.77H160.033C160.128 18.77 160.202 18.8003 160.254 18.861C160.306 18.913 160.332 18.9823 160.332 19.069V27.701C160.332 27.7877 160.306 27.8613 160.254 27.922C160.202 27.974 160.128 28 160.033 28H159.422ZM162.619 28C162.533 28 162.459 27.974 162.398 27.922C162.346 27.8613 162.32 27.7877 162.32 27.701V21.539C162.32 21.4523 162.346 21.383 162.398 21.331C162.459 21.2703 162.533 21.24 162.619 21.24H163.243C163.33 21.24 163.399 21.2703 163.451 21.331C163.512 21.383 163.542 21.4523 163.542 21.539V27.701C163.542 27.7877 163.512 27.8613 163.451 27.922C163.399 27.974 163.33 28 163.243 28H162.619ZM162.515 19.979C162.429 19.979 162.355 19.953 162.294 19.901C162.242 19.8403 162.216 19.7667 162.216 19.68V18.978C162.216 18.8913 162.242 18.8177 162.294 18.757C162.355 18.6963 162.429 18.666 162.515 18.666H163.334C163.421 18.666 163.495 18.6963 163.555 18.757C163.616 18.8177 163.646 18.8913 163.646 18.978V19.68C163.646 19.7667 163.616 19.8403 163.555 19.901C163.495 19.953 163.421 19.979 163.334 19.979H162.515ZM168.146 28.13C167.531 28.13 166.998 28.013 166.547 27.779C166.105 27.5363 165.763 27.194 165.52 26.752C165.277 26.3013 165.147 25.764 165.13 25.14C165.121 25.01 165.117 24.8367 165.117 24.62C165.117 24.4033 165.121 24.23 165.13 24.1C165.147 23.476 165.277 22.943 165.52 22.501C165.763 22.0503 166.105 21.708 166.547 21.474C166.998 21.2313 167.531 21.11 168.146 21.11C168.649 21.11 169.078 21.1793 169.433 21.318C169.797 21.4567 170.096 21.6343 170.33 21.851C170.564 22.0677 170.737 22.3017 170.85 22.553C170.971 22.8043 171.036 23.0427 171.045 23.268C171.054 23.3547 171.028 23.424 170.967 23.476C170.906 23.528 170.833 23.554 170.746 23.554H170.122C170.035 23.554 169.97 23.5367 169.927 23.502C169.884 23.4587 169.84 23.3893 169.797 23.294C169.641 22.8693 169.429 22.5703 169.16 22.397C168.891 22.2237 168.558 22.137 168.159 22.137C167.639 22.137 167.214 22.2973 166.885 22.618C166.564 22.9387 166.391 23.4543 166.365 24.165C166.356 24.477 166.356 24.7803 166.365 25.075C166.391 25.7943 166.564 26.3143 166.885 26.635C167.214 26.947 167.639 27.103 168.159 27.103C168.558 27.103 168.891 27.0163 169.16 26.843C169.429 26.6697 169.641 26.3707 169.797 25.946C169.84 25.8507 169.884 25.7813 169.927 25.738C169.97 25.6947 170.035 25.673 170.122 25.673H170.746C170.833 25.673 170.906 25.7033 170.967 25.764C171.028 25.816 171.054 25.8853 171.045 25.972C171.036 26.154 170.997 26.3403 170.928 26.531C170.859 26.7217 170.746 26.9167 170.59 27.116C170.443 27.3067 170.256 27.48 170.031 27.636C169.806 27.7833 169.537 27.9047 169.225 28C168.913 28.0867 168.553 28.13 168.146 28.13ZM173.503 30.47C173.434 30.47 173.373 30.444 173.321 30.392C173.269 30.34 173.243 30.2793 173.243 30.21C173.243 30.1753 173.248 30.1407 173.256 30.106C173.265 30.0713 173.282 30.028 173.308 29.976L174.309 27.597L171.826 21.734C171.783 21.63 171.761 21.5563 171.761 21.513C171.761 21.435 171.787 21.37 171.839 21.318C171.891 21.266 171.956 21.24 172.034 21.24H172.671C172.767 21.24 172.836 21.2617 172.879 21.305C172.931 21.3483 172.966 21.4003 172.983 21.461L174.959 26.193L176.987 21.461C177.013 21.4003 177.048 21.3483 177.091 21.305C177.143 21.2617 177.217 21.24 177.312 21.24H177.923C178.001 21.24 178.066 21.266 178.118 21.318C178.17 21.37 178.196 21.4307 178.196 21.5C178.196 21.5433 178.175 21.6213 178.131 21.734L174.439 30.249C174.413 30.3097 174.374 30.3617 174.322 30.405C174.279 30.4483 174.21 30.47 174.114 30.47H173.503Z" fill="#555555"/>
<path d="M147.574 10.975H248.086V11.625H147.574V10.975ZM95.6674 28.975H178.534V29.625H95.6674V28.975Z" fill="#555555"/>
</svg>
