<svg width="16" height="9" viewBox="0 0 16 9" fill="none" xmlns="http://www.w3.org/2000/svg">
<path d="M2.66684 4.18662C3.40322 4.18662 4.00018 3.61354 4.00018 2.90661C4.00018 2.19969 3.40322 1.62661 2.66684 1.62661C1.93045 1.62661 1.3335 2.19969 1.3335 2.90661C1.3335 3.61354 1.93045 4.18662 2.66684 4.18662Z" fill="#0E0F12"/>
<path d="M3.67361 4.83467C4.05732 4.87031 4.09599 5.34521 3.86399 5.6529C3.53097 6.09455 3.33335 6.63904 3.33335 7.22663C3.33335 7.315 3.26172 7.38663 3.17335 7.38663H0.500003C0.226668 7.38663 0 7.16904 0 6.90663V6.58663C0 5.61383 0.820005 4.82663 1.83334 4.82663H3.50002C3.55851 4.82663 3.61643 4.82936 3.67361 4.83467Z" fill="#0E0F12"/>
<path d="M13.3334 4.18662C14.0698 4.18662 14.6668 3.61354 14.6668 2.90661C14.6668 2.19969 14.0698 1.62661 13.3334 1.62661C12.597 1.62661 12.0001 2.19969 12.0001 2.90661C12.0001 3.61354 12.597 4.18662 13.3334 4.18662Z" fill="#0E0F12"/>
<path d="M16 6.58663V6.90663C16 7.16904 15.7733 7.38663 15.5 7.38663H12.8266C12.7383 7.38663 12.6666 7.315 12.6666 7.22663C12.6666 6.63904 12.469 6.09455 12.136 5.6529C11.904 5.34521 11.9427 4.87031 12.3264 4.83467C12.3836 4.82936 12.4415 4.82663 12.5 4.82663H14.1667C15.18 4.82663 16 5.61383 16 6.58663Z" fill="#0E0F12"/>
<path d="M8.00005 4.50664C9.10462 4.50664 10.0001 3.64702 10.0001 2.58663C10.0001 1.52624 9.10462 0.666626 8.00005 0.666626C6.89547 0.666626 6.00004 1.52624 6.00004 2.58663C6.00004 3.64702 6.89547 4.50664 8.00005 4.50664Z" fill="#0E0F12"/>
<path d="M9.83354 5.46662H6.16686C5.15552 5.46662 4.33351 6.25574 4.33351 7.22662V8.18663C4.33351 8.45159 4.55751 8.66663 4.83352 8.66663H11.1669C11.4429 8.66663 11.6669 8.45159 11.6669 8.18663V7.22662C11.6669 6.25574 10.8449 5.46662 9.83354 5.46662Z" fill="#0E0F12"/>
</svg>
