<svg width="12" height="12" viewBox="0 0 12 12" fill="none" xmlns="http://www.w3.org/2000/svg">
<path fill-rule="evenodd" clip-rule="evenodd" d="M10.6339 1.36612C11.122 1.85427 11.122 2.64573 10.6339 3.13388L3.13388 10.6339C2.64573 11.122 1.85427 11.122 1.36612 10.6339C0.877961 10.1457 0.877961 9.35427 1.36612 8.86612L8.86612 1.36612C9.35427 0.877961 10.1457 0.877961 10.6339 1.36612Z" fill="#FF776F" stroke="white" stroke-width="0.5" stroke-linecap="round" stroke-linejoin="round"/>
<path fill-rule="evenodd" clip-rule="evenodd" d="M1.36612 1.36612C1.85427 0.877961 2.64573 0.877961 3.13388 1.36612L10.6339 8.86612C11.122 9.35427 11.122 10.1457 10.6339 10.6339C10.1457 11.122 9.35427 11.122 8.86612 10.6339L1.36612 3.13388C0.877961 2.64573 0.877961 1.85427 1.36612 1.36612Z" fill="#FF776F" stroke="white" stroke-width="0.5" stroke-linecap="round" stroke-linejoin="round"/>
</svg>
